#N canvas 472 50 738 669 10;
#X floatatom 96 375 5 0 255 0 R - -, f 5;
#X floatatom 177 389 5 0 255 0 G - -, f 5;
#X floatatom 244 375 5 0 255 0 B - -, f 5;
#X floatatom 68 58 5 0 360 2 H - -, f 5;
#X floatatom 157 53 5 0 100 2 S - -, f 5;
#X floatatom 212 53 5 0 100 2 V - -, f 5;
#X obj 157 78 / 100;
#X obj 212 78 / 100;
#X obj 434 71 * 6;
#X obj 434 127 int;
#X floatatom 434 155 3 0 0 0 i - -, f 3;
#X obj 434 237 -, f 7;
#X obj 434 209 f, f 5;
#X obj 434 180 t b f, f 7;
#X floatatom 434 265 5 0 0 0 f - -, f 5;
#X obj 485 127 -, f 5;
#X obj 485 71 t b f;
#X msg 485 99 1;
#X obj 530 155 *, f 5;
#X obj 530 127 t b f;
#X floatatom 530 183 5 0 0 0 p - #0-p, f 5;
#X obj 540 290 *, f 5;
#X obj 540 262 t b f;
#X obj 68 111 s \$0-h;
#X obj 157 106 s \$0-s;
#X obj 212 106 s \$0-v;
#X obj 434 43 r \$0-h;
#X obj 485 43 r \$0-s;
#X obj 540 234 r \$0-s;
#X obj 530 99 r \$0-v;
#X obj 540 374 -, f 5;
#X obj 540 318 t b f;
#X msg 540 346 1;
#X obj 585 402 *, f 5;
#X obj 585 374 t b f;
#X floatatom 585 430 5 0 0 0 q - #0-q, f 5;
#X obj 585 346 r \$0-v;
#X obj 434 346 -, f 5;
#X obj 434 290 t b f;
#X msg 434 318 1;
#X obj 479 374 *, f 5;
#X obj 479 346 t b f;
#X obj 479 318 r \$0-s;
#X obj 479 458 -, f 5;
#X obj 479 402 t b f;
#X msg 479 430 1;
#X obj 524 486 *, f 5;
#X obj 524 458 t b f;
#X floatatom 524 514 5 0 0 0 t - #0-t, f 5;
#X obj 524 430 r \$0-v;
#X obj 331 175 % 6;
#X floatatom 331 201 5 0 0 0 - - -, f 5;
#X obj 216 146 r \$0-v;
#X obj 172 146 r \$0-t;
#X obj 128 146 r \$0-q;
#X obj 84 146 r \$0-p;
#X text 384 551 Pd won't display the precise value here \, although
it knows it internally., f 38;
#X obj 40 249 sel 0 1 2 3 4 5;
#X obj 175 245 sel 0 1 2 3 4 5;
#X obj 301 251 sel 0 1 2 3 4 5;
#X obj 353 119 r \$0-v;
#X obj 302 119 r \$0-s;
#X obj 85 330 * 255;
#X obj 95 352 int;
#X obj 185 328 * 255;
#X obj 185 350 int;
#X obj 246 330 * 255;
#X obj 246 352 int;
#X obj 169 14 loadbang;
#X obj 434 99 t f f;
#X obj 47 14 inlet;
#X obj 110 15 inlet;
#X msg 269 45 100;
#X obj 138 452 pack f f f;
#X obj 138 474 outlet;
#X obj 347 85 r \$0-h;
#X obj 68 83 / 360;
#X obj 64 281 v \$0-p;
#X obj 114 280 v \$0-q;
#X obj 69 305 v \$0-t;
#X obj 216 170 v \$0-v;
#X obj 168 178 v \$0-t;
#X obj 118 187 v \$0-q;
#X obj 60 188 v \$0-p;
#X obj 117 306 v \$0-v;
#X obj 171 274 v \$0-p;
#X obj 226 272 v \$0-q;
#X obj 181 297 v \$0-t;
#X obj 237 296 v \$0-v;
#X obj 297 277 v \$0-p;
#X obj 360 278 v \$0-q;
#X obj 299 300 v \$0-t;
#X obj 359 300 v \$0-v;
#X obj 331 147 t;
#X obj 257 12 inlet;
#X connect 0 0 73 0;
#X connect 1 0 73 1;
#X connect 2 0 73 2;
#X connect 3 0 76 0;
#X connect 4 0 6 0;
#X connect 5 0 7 0;
#X connect 6 0 24 0;
#X connect 7 0 25 0;
#X connect 8 0 69 0;
#X connect 9 0 10 0;
#X connect 10 0 13 0;
#X connect 10 0 50 0;
#X connect 11 0 14 0;
#X connect 12 0 11 0;
#X connect 13 0 12 0;
#X connect 13 1 11 1;
#X connect 14 0 21 0;
#X connect 14 0 38 0;
#X connect 15 0 18 0;
#X connect 16 0 17 0;
#X connect 16 1 15 1;
#X connect 17 0 15 0;
#X connect 18 0 20 0;
#X connect 19 0 18 0;
#X connect 19 1 18 1;
#X connect 21 0 31 0;
#X connect 22 0 21 0;
#X connect 22 1 21 1;
#X connect 26 0 8 0;
#X connect 27 0 16 0;
#X connect 28 0 22 0;
#X connect 29 0 19 0;
#X connect 30 0 33 0;
#X connect 31 0 32 0;
#X connect 31 1 30 1;
#X connect 32 0 30 0;
#X connect 33 0 35 0;
#X connect 34 0 33 0;
#X connect 34 1 33 1;
#X connect 36 0 34 0;
#X connect 37 0 40 0;
#X connect 38 0 39 0;
#X connect 38 1 37 1;
#X connect 39 0 37 0;
#X connect 40 0 44 0;
#X connect 41 0 40 0;
#X connect 41 1 40 1;
#X connect 42 0 41 0;
#X connect 43 0 46 0;
#X connect 44 0 45 0;
#X connect 44 1 43 1;
#X connect 45 0 43 0;
#X connect 46 0 48 0;
#X connect 47 0 46 0;
#X connect 47 1 46 1;
#X connect 49 0 47 0;
#X connect 50 0 51 0;
#X connect 51 0 57 0;
#X connect 51 0 58 0;
#X connect 51 0 59 0;
#X connect 52 0 80 0;
#X connect 53 0 81 0;
#X connect 54 0 82 0;
#X connect 55 0 83 0;
#X connect 57 0 84 0;
#X connect 57 1 78 0;
#X connect 57 2 77 0;
#X connect 57 3 77 0;
#X connect 57 4 79 0;
#X connect 57 5 84 0;
#X connect 58 0 87 0;
#X connect 58 1 88 0;
#X connect 58 2 88 0;
#X connect 58 3 86 0;
#X connect 58 4 85 0;
#X connect 58 5 85 0;
#X connect 59 0 89 0;
#X connect 59 1 89 0;
#X connect 59 2 91 0;
#X connect 59 3 92 0;
#X connect 59 4 92 0;
#X connect 59 5 90 0;
#X connect 60 0 93 0;
#X connect 61 0 93 0;
#X connect 62 0 63 0;
#X connect 63 0 0 0;
#X connect 64 0 65 0;
#X connect 65 0 1 0;
#X connect 66 0 67 0;
#X connect 67 0 2 0;
#X connect 68 0 3 0;
#X connect 68 0 4 0;
#X connect 68 0 72 0;
#X connect 69 0 9 0;
#X connect 69 1 12 1;
#X connect 70 0 3 0;
#X connect 71 0 4 0;
#X connect 72 0 5 0;
#X connect 73 0 74 0;
#X connect 75 0 93 0;
#X connect 76 0 23 0;
#X connect 77 0 62 0;
#X connect 78 0 62 0;
#X connect 79 0 62 0;
#X connect 84 0 62 0;
#X connect 85 0 64 0;
#X connect 86 0 64 0;
#X connect 87 0 64 0;
#X connect 88 0 64 0;
#X connect 89 0 66 0;
#X connect 90 0 66 0;
#X connect 91 0 66 0;
#X connect 92 0 66 0;
#X connect 93 0 50 0;
#X connect 94 0 5 0;
#X coords 0 669 1 668 99 99 0;
