#N canvas 69 50 1344 772 12;
#X obj 82 575 f \$1;
#X obj 82 610 pack f f f f;
#X obj 82 512 unpack f f f;
#X obj 82 543 t b f;
#X obj 184 358 r ThNote;
#X obj 184 386 sel -1;
#X obj 82 486 spigot;
#X msg 99 435 0;
#X obj 127 462 tgl 15 0 empty empty empty 17 7 0 10 -262144 -1 -1 1
1;
#X obj 184 415 t b b;
#X msg 140 435 1;
#X obj 197 462 sel \$1;
#X obj 195 541 t b f f f;
#X obj 222 510 t b b b b b;
#X obj 325 566 f \$1;
#X obj 325 610 pack f f f f;
#X obj 325 519 unpack f f f;
#X obj 325 543 t b f;
#X obj 427 386 sel -1;
#X msg 427 500 22;
#X obj 325 486 spigot;
#X msg 342 435 0;
#X obj 370 462 tgl 15 0 empty empty empty 17 7 0 10 -262144 -1 -1 1
1;
#X obj 428 404 t b b;
#X msg 383 435 1;
#X obj 440 462 sel \$1;
#X obj 427 559 t b f f f;
#X obj 439 531 t b b b b b;
#X obj 427 358 r INote;
#X obj 557 566 f \$1;
#X obj 557 610 pack f f f f;
#X obj 557 519 unpack f f f;
#X obj 557 543 t b f;
#X obj 659 386 sel -1;
#X msg 659 500 22;
#X obj 557 486 spigot;
#X msg 574 435 0;
#X obj 602 462 tgl 15 0 empty empty empty 17 7 0 10 -262144 -1 -1 1
1;
#X obj 659 415 t b b;
#X msg 615 435 1;
#X obj 672 462 sel \$1;
#X obj 659 559 t b f f f;
#X obj 671 529 t b b b b b;
#X obj 659 358 r MNote;
#X obj 790 568 f \$1;
#X obj 790 612 pack f f f f;
#X obj 790 521 unpack f f f;
#X obj 790 545 t b f;
#X obj 892 388 sel -1;
#X msg 892 502 22;
#X obj 790 488 spigot;
#X msg 809 435 0;
#X obj 835 464 tgl 15 0 empty empty empty 17 7 0 10 -262144 -1 -1 1
1;
#X obj 892 417 t b b;
#X msg 848 437 1;
#X obj 905 464 sel \$1;
#X obj 892 561 t b f f f;
#X obj 902 533 t b b b b b;
#X obj 892 360 r RiNote;
#X obj 1034 567 f \$1;
#X obj 1034 611 pack f f f f;
#X obj 1034 520 unpack f f f;
#X obj 1034 544 t b f;
#X obj 1136 387 sel -1;
#X msg 1136 501 22;
#X obj 1034 487 spigot;
#X msg 1051 436 0;
#X obj 1079 463 tgl 15 0 empty empty empty 17 7 0 10 -262144 -1 -1
1 1;
#X obj 1136 416 t b b;
#X msg 1092 436 1;
#X obj 1149 463 sel \$1;
#X obj 1136 560 t b f f f;
#X obj 1148 534 t b b b b b;
#X obj 1136 359 r PNote;
#X obj 56 302 unpack f f f;
#X obj 137 249 r sat1;
#X floatatom 38 336 5 0 255 0 - - -, f 5;
#X floatatom 88 336 5 0 255 0 - - -, f 5;
#X floatatom 137 336 5 0 255 0 - - -, f 5;
#X obj 297 300 unpack f f f;
#X floatatom 279 334 5 0 255 0 - - -, f 5;
#X floatatom 329 334 5 0 255 0 - - -, f 5;
#X floatatom 378 334 5 0 255 0 - - -, f 5;
#X obj 525 296 unpack f f f;
#X floatatom 507 330 5 0 255 0 - - -, f 5;
#X floatatom 557 330 5 0 255 0 - - -, f 5;
#X floatatom 606 330 5 0 255 0 - - -, f 5;
#X obj 765 303 unpack f f f;
#X floatatom 747 337 5 0 255 0 - - -, f 5;
#X floatatom 797 337 5 0 255 0 - - -, f 5;
#X floatatom 846 337 5 0 255 0 - - -, f 5;
#X obj 999 299 unpack f f f;
#X floatatom 981 333 5 0 255 0 - - -, f 5;
#X floatatom 1031 333 5 0 255 0 - - -, f 5;
#X floatatom 1080 333 5 0 255 0 - - -, f 5;
#X obj 334 243 r sat2;
#X obj 594 200 r sat3;
#X obj 821 245 r sat4;
#X obj 1073 242 r sat5;
#N canvas 15 207 606 448 rgbConversion 0;
#X obj 220 52 inlet;
#X obj 297 54 inlet;
#X obj 363 55 inlet;
#X obj 315 388 outlet;
#X text 225 27 red;
#X text 295 29 green;
#X text 367 29 blue;
#X obj 363 101 t b f;
#X obj 297 159 +;
#X obj 297 184 t b f;
#X obj 297 215 +;
#X obj 244 386 outlet;
#X obj 244 362 f;
#X obj 315 364 f;
#X obj 220 78 * -65536;
#X obj 297 79 * -256;
#X obj 363 79 * -1;
#X obj 297 246 - 1;
#X obj 207 185 r speedB;
#X obj 350 184 loadbang;
#X obj 207 215 t b b;
#X msg 350 217 22;
#X connect 0 0 14 0;
#X connect 1 0 15 0;
#X connect 2 0 16 0;
#X connect 7 0 8 0;
#X connect 7 1 8 1;
#X connect 8 0 9 0;
#X connect 9 0 10 0;
#X connect 9 1 10 1;
#X connect 10 0 17 0;
#X connect 12 0 11 0;
#X connect 13 0 3 0;
#X connect 14 0 10 0;
#X connect 15 0 8 0;
#X connect 16 0 7 0;
#X connect 17 0 13 1;
#X connect 18 0 20 0;
#X connect 19 0 21 0;
#X connect 20 0 13 0;
#X connect 20 1 12 0;
#X connect 21 0 12 1;
#X restore 42 366 pd rgbConversion;
#X obj 77 274 canvas2;
#N canvas 15 207 606 448 rgbConversion 0;
#X obj 220 52 inlet;
#X obj 297 54 inlet;
#X obj 363 55 inlet;
#X obj 321 382 outlet;
#X text 225 27 red;
#X text 295 29 green;
#X text 367 29 blue;
#X obj 363 101 t b f;
#X obj 297 159 +;
#X obj 297 184 t b f;
#X obj 297 215 +;
#X obj 244 382 outlet;
#X obj 244 358 f;
#X obj 321 358 f;
#X obj 220 78 * -65536;
#X obj 297 79 * -256;
#X obj 363 79 * -1;
#X obj 297 246 - 1;
#X obj 207 185 r speedB;
#X obj 350 184 loadbang;
#X obj 207 215 t b b;
#X msg 350 217 22;
#X connect 0 0 14 0;
#X connect 1 0 15 0;
#X connect 2 0 16 0;
#X connect 7 0 8 0;
#X connect 7 1 8 1;
#X connect 8 0 9 0;
#X connect 9 0 10 0;
#X connect 9 1 10 1;
#X connect 10 0 17 0;
#X connect 12 0 11 0;
#X connect 13 0 3 0;
#X connect 14 0 10 0;
#X connect 15 0 8 0;
#X connect 16 0 7 0;
#X connect 17 0 13 1;
#X connect 18 0 20 0;
#X connect 19 0 21 0;
#X connect 20 0 13 0;
#X connect 20 1 12 0;
#X connect 21 0 12 1;
#X restore 282 365 pd rgbConversion;
#N canvas 15 207 606 448 rgbConversion 0;
#X obj 220 52 inlet;
#X obj 297 54 inlet;
#X obj 363 55 inlet;
#X obj 327 377 outlet;
#X text 225 27 red;
#X text 295 29 green;
#X text 367 29 blue;
#X obj 363 101 t b f;
#X obj 297 159 +;
#X obj 297 184 t b f;
#X obj 297 215 +;
#X obj 244 378 outlet;
#X obj 244 354 f;
#X obj 327 353 f;
#X obj 220 78 * -65536;
#X obj 297 79 * -256;
#X obj 363 79 * -1;
#X obj 297 246 - 1;
#X obj 207 185 r speedB;
#X obj 350 184 loadbang;
#X obj 207 215 t b b;
#X msg 350 217 22;
#X connect 0 0 14 0;
#X connect 1 0 15 0;
#X connect 2 0 16 0;
#X connect 7 0 8 0;
#X connect 7 1 8 1;
#X connect 8 0 9 0;
#X connect 9 0 10 0;
#X connect 9 1 10 1;
#X connect 10 0 17 0;
#X connect 12 0 11 0;
#X connect 13 0 3 0;
#X connect 14 0 10 0;
#X connect 15 0 8 0;
#X connect 16 0 7 0;
#X connect 17 0 13 1;
#X connect 18 0 20 0;
#X connect 19 0 21 0;
#X connect 20 0 13 0;
#X connect 20 1 12 0;
#X connect 21 0 12 1;
#X restore 511 361 pd rgbConversion;
#N canvas 15 207 606 448 rgbConversion 0;
#X obj 220 52 inlet;
#X obj 297 54 inlet;
#X obj 363 55 inlet;
#X obj 347 382 outlet;
#X text 225 27 red;
#X text 295 29 green;
#X text 367 29 blue;
#X obj 363 101 t b f;
#X obj 297 159 +;
#X obj 297 184 t b f;
#X obj 297 215 +;
#X obj 244 382 outlet;
#X obj 244 358 f;
#X obj 347 358 f;
#X obj 220 78 * -65536;
#X obj 297 79 * -256;
#X obj 363 79 * -1;
#X obj 297 246 - 1;
#X obj 207 185 r speedB;
#X obj 350 184 loadbang;
#X obj 207 215 t b b;
#X msg 350 217 22;
#X connect 0 0 14 0;
#X connect 1 0 15 0;
#X connect 2 0 16 0;
#X connect 7 0 8 0;
#X connect 7 1 8 1;
#X connect 8 0 9 0;
#X connect 9 0 10 0;
#X connect 9 1 10 1;
#X connect 10 0 17 0;
#X connect 12 0 11 0;
#X connect 13 0 3 0;
#X connect 14 0 10 0;
#X connect 15 0 8 0;
#X connect 16 0 7 0;
#X connect 17 0 13 1;
#X connect 18 0 20 0;
#X connect 19 0 21 0;
#X connect 20 0 13 0;
#X connect 20 1 12 0;
#X connect 21 0 12 1;
#X restore 750 369 pd rgbConversion;
#N canvas 15 207 606 448 rgbConversion 0;
#X obj 220 52 inlet;
#X obj 297 54 inlet;
#X obj 363 55 inlet;
#X obj 311 380 outlet;
#X text 225 27 red;
#X text 295 29 green;
#X text 367 29 blue;
#X obj 363 101 t b f;
#X obj 297 159 +;
#X obj 297 184 t b f;
#X obj 297 215 +;
#X obj 234 380 outlet;
#X obj 234 356 f;
#X obj 311 356 f;
#X obj 220 78 * -65536;
#X obj 297 79 * -256;
#X obj 363 79 * -1;
#X obj 297 246 - 1;
#X obj 207 185 r speedB;
#X obj 350 184 loadbang;
#X obj 207 215 t b b;
#X msg 350 217 22;
#X text 386 217 Black background;
#X connect 0 0 14 0;
#X connect 1 0 15 0;
#X connect 2 0 16 0;
#X connect 7 0 8 0;
#X connect 7 1 8 1;
#X connect 8 0 9 0;
#X connect 9 0 10 0;
#X connect 9 1 10 1;
#X connect 10 0 17 0;
#X connect 12 0 11 0;
#X connect 13 0 3 0;
#X connect 14 0 10 0;
#X connect 15 0 8 0;
#X connect 16 0 7 0;
#X connect 17 0 13 1;
#X connect 18 0 20 0;
#X connect 19 0 21 0;
#X connect 20 0 13 0;
#X connect 20 1 12 0;
#X connect 21 0 12 1;
#X restore 984 362 pd rgbConversion;
#X obj 223 244 spigot;
#X obj 307 219 spigot;
#X obj 567 40 tgl 15 0 empty modeToggle empty 17 7 0 10 -262144 -1
-1 1 1;
#X obj 619 42 - 1;
#X obj 292 129 r hue2;
#X obj 501 245 spigot;
#X obj 528 222 spigot;
#X obj 739 251 spigot;
#X obj 765 224 spigot;
#X obj 984 246 spigot;
#X obj 1010 221 spigot;
#X obj 510 138 r hue3;
#X obj 730 125 r hue4;
#X obj 989 141 r hue5;
#X obj 47 112 r hue1;
#X obj 67 399 pack f f 0;
#X obj 308 397 pack f f 0;
#X obj 536 393 pack f f 0;
#X obj 776 400 pack f f 0;
#X obj 1009 396 pack f f 0;
#X obj 1020 271 canvas2;
#X obj 786 275 canvas2;
#X obj 546 268 canvas2;
#X obj 318 272 canvas2;
#X obj 1055 165 * 30;
#X obj 1055 138 f \$1;
#X obj 454 19 loadbang;
#X obj 796 160 * 30;
#X obj 796 133 f \$1;
#X obj 573 167 * 30;
#X obj 573 140 f \$1;
#X obj 355 156 * 30;
#X obj 355 129 f \$1;
#X obj 96 154 f \$1;
#X obj 308 183 % 360;
#X obj 520 198 % 360;
#X obj 759 197 % 360;
#X obj 1005 197 % 360;
#X obj 58 233 % 360;
#X obj 108 209 * 30;
#X obj 28 252 abs;
#X obj 243 183 * 30;
#X obj 243 156 f \$1;
#X obj 205 182 +;
#X obj 196 210 % 360;
#X obj 180 156 r hue1;
#X obj 465 174 * 30;
#X obj 465 147 f \$1;
#X obj 427 173 +;
#X obj 412 205 % 360;
#X obj 402 147 r hue1;
#X obj 701 184 * 30;
#X obj 701 157 f \$1;
#X obj 663 183 +;
#X obj 664 221 % 360;
#X obj 635 149 r hue1;
#X obj 946 172 * 30;
#X obj 946 145 f \$1;
#X obj 897 179 +;
#X obj 896 204 % 360;
#X obj 880 148 r hue1;
#X obj 55 202 +;
#X obj 317 155 +;
#X obj 534 166 +;
#X obj 758 159 +;
#X obj 1006 172 +;
#X obj 192 292 r val1;
#X msg 82 643 \$1 \$2 \$3 \$4;
#X msg 325 643 \$1 \$2 \$3 \$4;
#X msg 557 643 \$1 \$2 \$3 \$4;
#X msg 790 645 \$1 \$2 \$3 \$4;
#X msg 1034 644 \$1 \$2 \$3 \$4;
#X msg 184 500 22;
#X msg 325 680 \; I-\$1-in color \$2 \$3 \$4;
#X msg 557 680 \; M-\$1-in color \$2 \$3 \$4;
#X msg 790 682 \; Ri-\$1-in color \$2 \$3 \$4;
#X msg 1034 681 \; P-\$1-in color \$2 \$3 \$4;
#X obj 209 616 spigot;
#X obj 257 597 tgl 15 0 empty empty empty 17 7 0 10 -262144 -1 -1 0
1;
#X obj 209 641 t b f;
#X obj 451 626 spigot;
#X obj 499 607 tgl 15 0 empty empty empty 17 7 0 10 -262144 -1 -1 0
1;
#X obj 451 651 t b f;
#X obj 693 620 spigot;
#X obj 741 601 tgl 15 0 empty empty empty 17 7 0 10 -262144 -1 -1 0
1;
#X obj 693 645 t b f;
#X obj 925 621 spigot;
#X obj 973 602 tgl 15 0 empty empty empty 17 7 0 10 -262144 -1 -1 0
1;
#X obj 925 646 t b f;
#X obj 1183 622 spigot;
#X obj 1231 603 tgl 15 0 empty empty empty 17 7 0 10 -262144 -1 -1
0 1;
#X obj 1183 647 t b f;
#X msg 237 573 0;
#X msg 278 573 1;
#X msg 435 586 0;
#X msg 476 586 1;
#X msg 667 586 0;
#X msg 704 588 1;
#X msg 891 590 0;
#X msg 932 590 1;
#X msg 1143 590 0;
#X msg 1184 590 1;
#X msg 285 546 22;
#X msg 509 566 22;
#X msg 741 566 22;
#X msg 974 568 22;
#X msg 1218 567 22;
#X msg 383 551 22;
#X msg 615 551 22;
#X msg 848 553 22;
#X msg 1092 552 22;
#X obj 208 323 spigot;
#X obj 263 302 tgl 15 0 empty empty empty 17 7 0 10 -262144 -1 -1 1
1;
#X msg 161 209 100;
#X obj 429 323 spigot;
#X obj 488 303 tgl 15 0 empty empty empty 17 7 0 10 -262144 -1 -1 1
1;
#X msg 415 270 100;
#X obj 661 333 spigot;
#X obj 720 313 tgl 15 0 empty empty empty 17 7 0 10 -262144 -1 -1 1
1;
#X msg 647 280 100;
#X obj 895 330 spigot;
#X obj 954 310 tgl 15 0 empty empty empty 17 7 0 10 -262144 -1 -1 1
1;
#X msg 881 277 100;
#X obj 412 293 r val2;
#X obj 652 305 r val3;
#X obj 878 300 r val4;
#X obj 1151 320 spigot;
#X obj 1210 300 tgl 15 0 empty empty empty 17 7 0 10 -262144 -1 -1
1 1;
#X msg 1137 267 100;
#X msg 82 680 \; Th-\$1-in color \$2 \$3 \$4;
#X msg 140 551 22;
#X obj 1134 290 r val5;
#X connect 0 0 1 0;
#X connect 1 0 172 0;
#X connect 2 0 3 0;
#X connect 2 1 1 2;
#X connect 2 1 1 1;
#X connect 2 2 1 3;
#X connect 3 0 0 0;
#X connect 4 0 5 0;
#X connect 5 0 9 0;
#X connect 5 1 11 0;
#X connect 6 0 2 0;
#X connect 7 0 8 0;
#X connect 7 0 198 0;
#X connect 7 0 217 0;
#X connect 7 0 218 0;
#X connect 8 0 6 1;
#X connect 9 0 177 0;
#X connect 9 1 7 0;
#X connect 9 1 197 0;
#X connect 10 0 8 0;
#X connect 10 0 197 0;
#X connect 10 0 217 0;
#X connect 11 0 13 0;
#X connect 11 1 10 0;
#X connect 12 0 1 0;
#X connect 12 1 1 1;
#X connect 12 2 1 2;
#X connect 12 3 1 3;
#X connect 13 0 1 0;
#X connect 13 1 235 0;
#X connect 13 3 207 0;
#X connect 13 4 7 0;
#X connect 14 0 15 0;
#X connect 15 0 173 0;
#X connect 16 0 17 0;
#X connect 16 1 15 2;
#X connect 16 1 15 1;
#X connect 16 2 15 3;
#X connect 17 0 14 0;
#X connect 18 0 23 0;
#X connect 18 1 25 0;
#X connect 19 0 26 0;
#X connect 20 0 16 0;
#X connect 21 0 22 0;
#X connect 21 0 200 0;
#X connect 21 0 221 0;
#X connect 21 0 220 0;
#X connect 22 0 20 1;
#X connect 23 0 19 0;
#X connect 23 1 21 0;
#X connect 23 1 199 0;
#X connect 24 0 22 0;
#X connect 24 0 199 0;
#X connect 24 0 220 0;
#X connect 25 0 27 0;
#X connect 25 1 24 0;
#X connect 26 0 15 0;
#X connect 26 1 15 1;
#X connect 26 2 15 2;
#X connect 26 3 15 3;
#X connect 27 0 15 0;
#X connect 27 1 212 0;
#X connect 27 3 208 0;
#X connect 27 4 21 0;
#X connect 28 0 18 0;
#X connect 29 0 30 0;
#X connect 30 0 174 0;
#X connect 31 0 32 0;
#X connect 31 1 30 2;
#X connect 31 1 30 1;
#X connect 31 2 30 3;
#X connect 32 0 29 0;
#X connect 33 0 38 0;
#X connect 33 1 40 0;
#X connect 34 0 41 0;
#X connect 35 0 31 0;
#X connect 36 0 37 0;
#X connect 36 0 202 0;
#X connect 36 0 223 0;
#X connect 36 0 224 0;
#X connect 37 0 35 1;
#X connect 38 0 34 0;
#X connect 38 1 36 0;
#X connect 38 1 201 0;
#X connect 39 0 37 0;
#X connect 39 0 201 0;
#X connect 39 0 223 0;
#X connect 40 0 42 0;
#X connect 40 1 39 0;
#X connect 41 0 30 0;
#X connect 41 1 30 1;
#X connect 41 2 30 2;
#X connect 41 3 30 3;
#X connect 42 0 30 0;
#X connect 42 1 213 0;
#X connect 42 3 209 0;
#X connect 42 4 36 0;
#X connect 43 0 33 0;
#X connect 44 0 45 0;
#X connect 45 0 175 0;
#X connect 46 0 47 0;
#X connect 46 1 45 2;
#X connect 46 1 45 1;
#X connect 46 2 45 3;
#X connect 47 0 44 0;
#X connect 48 0 53 0;
#X connect 48 1 55 0;
#X connect 49 0 56 0;
#X connect 50 0 46 0;
#X connect 51 0 52 0;
#X connect 51 0 204 0;
#X connect 51 0 227 0;
#X connect 51 0 226 0;
#X connect 52 0 50 1;
#X connect 53 0 49 0;
#X connect 53 1 51 0;
#X connect 53 1 203 0;
#X connect 54 0 52 0;
#X connect 54 0 203 0;
#X connect 54 0 226 0;
#X connect 55 0 57 0;
#X connect 55 1 54 0;
#X connect 56 0 45 0;
#X connect 56 1 45 1;
#X connect 56 2 45 2;
#X connect 56 3 45 3;
#X connect 57 0 45 0;
#X connect 57 1 214 0;
#X connect 57 3 210 0;
#X connect 57 4 51 0;
#X connect 58 0 48 0;
#X connect 59 0 60 0;
#X connect 60 0 176 0;
#X connect 61 0 62 0;
#X connect 61 1 60 2;
#X connect 61 1 60 1;
#X connect 61 2 60 3;
#X connect 62 0 59 0;
#X connect 63 0 68 0;
#X connect 63 1 70 0;
#X connect 64 0 71 0;
#X connect 65 0 61 0;
#X connect 66 0 67 0;
#X connect 66 0 206 0;
#X connect 66 0 233 0;
#X connect 66 0 232 0;
#X connect 67 0 65 1;
#X connect 68 0 64 0;
#X connect 68 1 66 0;
#X connect 68 1 205 0;
#X connect 69 0 67 0;
#X connect 69 0 205 0;
#X connect 69 0 232 0;
#X connect 70 0 72 0;
#X connect 70 1 69 0;
#X connect 71 0 60 0;
#X connect 71 1 60 1;
#X connect 71 2 60 2;
#X connect 71 3 60 3;
#X connect 72 0 60 0;
#X connect 72 1 215 0;
#X connect 72 3 211 0;
#X connect 72 4 66 0;
#X connect 73 0 63 0;
#X connect 74 0 76 0;
#X connect 74 1 77 0;
#X connect 74 2 78 0;
#X connect 75 0 100 1;
#X connect 76 0 99 0;
#X connect 77 0 99 1;
#X connect 78 0 99 2;
#X connect 79 0 80 0;
#X connect 79 1 81 0;
#X connect 79 2 82 0;
#X connect 80 0 101 0;
#X connect 81 0 101 1;
#X connect 82 0 101 2;
#X connect 83 0 84 0;
#X connect 83 1 85 0;
#X connect 83 2 86 0;
#X connect 84 0 102 0;
#X connect 85 0 102 1;
#X connect 86 0 102 2;
#X connect 87 0 88 0;
#X connect 87 1 89 0;
#X connect 87 2 90 0;
#X connect 88 0 103 0;
#X connect 89 0 103 1;
#X connect 90 0 103 2;
#X connect 91 0 92 0;
#X connect 91 1 93 0;
#X connect 91 2 94 0;
#X connect 92 0 104 0;
#X connect 93 0 104 1;
#X connect 94 0 104 2;
#X connect 95 0 128 1;
#X connect 96 0 127 1;
#X connect 97 0 126 1;
#X connect 98 0 125 1;
#X connect 99 0 120 0;
#X connect 99 1 120 1;
#X connect 99 1 182 0;
#X connect 100 0 74 0;
#X connect 101 0 121 0;
#X connect 101 1 121 1;
#X connect 101 1 185 0;
#X connect 102 0 122 0;
#X connect 102 1 122 1;
#X connect 102 1 188 0;
#X connect 103 0 123 0;
#X connect 103 1 123 1;
#X connect 103 1 191 0;
#X connect 104 0 124 0;
#X connect 104 1 124 1;
#X connect 104 1 194 0;
#X connect 105 0 128 0;
#X connect 106 0 128 0;
#X connect 107 0 105 1;
#X connect 107 0 108 0;
#X connect 107 0 110 1;
#X connect 107 0 112 1;
#X connect 107 0 114 1;
#X connect 108 0 106 1;
#X connect 108 0 111 1;
#X connect 108 0 113 1;
#X connect 108 0 115 1;
#X connect 109 0 167 0;
#X connect 110 0 127 0;
#X connect 111 0 127 0;
#X connect 112 0 126 0;
#X connect 113 0 126 0;
#X connect 114 0 125 0;
#X connect 115 0 125 0;
#X connect 116 0 168 0;
#X connect 117 0 169 0;
#X connect 118 0 170 0;
#X connect 119 0 166 0;
#X connect 120 0 6 0;
#X connect 121 0 20 0;
#X connect 122 0 35 0;
#X connect 123 0 50 0;
#X connect 124 0 65 0;
#X connect 125 0 91 0;
#X connect 126 0 87 0;
#X connect 127 0 83 0;
#X connect 128 0 79 0;
#X connect 129 0 170 1;
#X connect 130 0 129 0;
#X connect 131 0 130 0;
#X connect 131 0 133 0;
#X connect 131 0 135 0;
#X connect 131 0 137 0;
#X connect 131 0 138 0;
#X connect 131 0 147 0;
#X connect 131 0 152 0;
#X connect 131 0 157 0;
#X connect 131 0 162 0;
#X connect 132 0 169 1;
#X connect 133 0 132 0;
#X connect 134 0 168 1;
#X connect 135 0 134 0;
#X connect 136 0 167 1;
#X connect 137 0 136 0;
#X connect 138 0 144 0;
#X connect 139 0 106 0;
#X connect 140 0 111 0;
#X connect 141 0 113 0;
#X connect 142 0 115 0;
#X connect 143 0 145 0;
#X connect 144 0 166 1;
#X connect 145 0 100 0;
#X connect 146 0 148 1;
#X connect 147 0 146 0;
#X connect 148 0 149 0;
#X connect 149 0 105 0;
#X connect 150 0 148 0;
#X connect 151 0 153 1;
#X connect 152 0 151 0;
#X connect 153 0 154 0;
#X connect 154 0 110 0;
#X connect 155 0 153 0;
#X connect 156 0 158 1;
#X connect 157 0 156 0;
#X connect 158 0 159 0;
#X connect 159 0 112 0;
#X connect 160 0 158 0;
#X connect 161 0 163 1;
#X connect 162 0 161 0;
#X connect 163 0 164 0;
#X connect 164 0 114 0;
#X connect 165 0 163 0;
#X connect 166 0 143 0;
#X connect 167 0 139 0;
#X connect 168 0 140 0;
#X connect 169 0 141 0;
#X connect 170 0 142 0;
#X connect 171 0 216 0;
#X connect 172 0 234 0;
#X connect 173 0 178 0;
#X connect 174 0 179 0;
#X connect 175 0 180 0;
#X connect 176 0 181 0;
#X connect 177 0 12 0;
#X connect 182 0 184 0;
#X connect 183 0 182 1;
#X connect 184 0 1 0;
#X connect 184 1 1 2;
#X connect 185 0 187 0;
#X connect 186 0 185 1;
#X connect 187 0 15 0;
#X connect 187 1 15 2;
#X connect 188 0 190 0;
#X connect 189 0 188 1;
#X connect 190 0 30 0;
#X connect 190 1 30 2;
#X connect 191 0 193 0;
#X connect 192 0 191 1;
#X connect 193 0 45 0;
#X connect 193 1 45 2;
#X connect 194 0 196 0;
#X connect 195 0 194 1;
#X connect 196 0 60 0;
#X connect 196 1 60 2;
#X connect 197 0 183 0;
#X connect 198 0 183 0;
#X connect 199 0 186 0;
#X connect 200 0 186 0;
#X connect 201 0 189 0;
#X connect 202 0 189 0;
#X connect 203 0 192 0;
#X connect 204 0 192 0;
#X connect 205 0 195 0;
#X connect 206 0 195 0;
#X connect 207 0 1 3;
#X connect 208 0 15 3;
#X connect 209 0 30 3;
#X connect 210 0 45 3;
#X connect 211 0 60 3;
#X connect 212 0 15 1;
#X connect 213 0 30 1;
#X connect 214 0 45 1;
#X connect 215 0 60 1;
#X connect 216 0 100 2;
#X connect 217 0 216 1;
#X connect 218 0 100 2;
#X connect 218 0 100 1;
#X connect 219 0 128 2;
#X connect 220 0 219 1;
#X connect 221 0 128 2;
#X connect 222 0 127 2;
#X connect 223 0 222 1;
#X connect 224 0 127 2;
#X connect 225 0 126 2;
#X connect 226 0 225 1;
#X connect 227 0 126 2;
#X connect 228 0 219 0;
#X connect 229 0 222 0;
#X connect 230 0 225 0;
#X connect 231 0 125 2;
#X connect 232 0 231 1;
#X connect 233 0 125 2;
#X connect 235 0 1 1;
#X connect 236 0 231 0;
