#N canvas 1075 277 450 340 12;
#X obj 177 33 inlet;
#X obj 177 83 t b f;
#X msg 177 108 1;
#X obj 177 162 -;
#X obj 176 285 s sat\$1;
#X obj 177 212 +;
#X floatatom 238 187 5 0 0 0 - - -, f 5;
#X obj 238 136 loadbang;
#X obj 280 159 r satScale;
#X obj 238 206 t b f;
#X obj 177 58 / 600;
#X msg 238 161 10;
#X obj 177 187 * 150;
#X obj 176 235 moses 100;
#X floatatom 114 238 5 0 0 0 - - -, f 5;
#X msg 233 260 100;
#X connect 0 0 10 0;
#X connect 1 0 2 0;
#X connect 1 1 3 1;
#X connect 2 0 3 0;
#X connect 3 0 12 0;
#X connect 5 0 13 0;
#X connect 5 0 14 0;
#X connect 6 0 9 0;
#X connect 7 0 11 0;
#X connect 8 0 6 0;
#X connect 9 0 5 0;
#X connect 9 1 5 1;
#X connect 10 0 1 0;
#X connect 11 0 6 0;
#X connect 12 0 5 0;
#X connect 13 0 4 0;
#X connect 13 1 15 0;
#X connect 15 0 4 0;
