#N canvas 0 50 717 513 12;
#X obj 51 406 symbol;
#X msg 51 325 E;
#X msg 96 325 F;
#X msg 132 325 F#/Gb;
#X msg 186 325 G;
#X msg 222 325 G#/Ab;
#X msg 278 325 A;
#X msg 316 325 A#/Bb;
#X msg 366 325 B;
#X msg 402 325 C;
#X msg 438 325 C#/Db;
#X msg 490 325 D;
#X msg 528 325 D#/Eb;
#X obj 51 459 outlet;
#X msg 584 325 N/A;
#X obj 278 178 min;
#X obj 379 198 min;
#X obj 483 218 min;
#X obj 594 238 min;
#X floatatom 51 159 5 0 0 0 - - -, f 5;
#X obj 157 101 r note1;
#X obj 241 44 r note2;
#X obj 342 62 r note3;
#X obj 446 79 r note4;
#X obj 557 112 r note5;
#X obj 278 128 t b f;
#X obj 157 128 sel 0;
#X msg 157 158 999;
#X obj 379 151 t b f;
#X obj 342 90 sel 0;
#X msg 342 121 999;
#X obj 241 71 sel 0;
#X msg 241 98 999;
#X obj 446 109 sel 0;
#X obj 483 173 t b f;
#X msg 446 142 999;
#X obj 557 139 sel 0;
#X obj 594 194 t b f;
#X msg 557 166 999;
#X obj 51 208 % 12;
#X obj 51 182 + 8;
#X obj 594 266 sel 999;
#X floatatom 524 267 5 0 0 0 - - -, f 5;
#X obj 51 236 sel 0 1 2 3 4 5 6 7 8 9 10 11 999;
#X msg 439 267 999;
#X connect 0 0 13 0;
#X connect 1 0 0 0;
#X connect 2 0 0 0;
#X connect 3 0 0 0;
#X connect 4 0 0 0;
#X connect 5 0 0 0;
#X connect 6 0 0 0;
#X connect 7 0 0 0;
#X connect 8 0 0 0;
#X connect 9 0 0 0;
#X connect 10 0 0 0;
#X connect 11 0 0 0;
#X connect 12 0 0 0;
#X connect 14 0 0 0;
#X connect 15 0 16 0;
#X connect 16 0 17 0;
#X connect 17 0 18 0;
#X connect 18 0 41 0;
#X connect 18 0 42 0;
#X connect 19 0 40 0;
#X connect 20 0 26 0;
#X connect 21 0 31 0;
#X connect 22 0 29 0;
#X connect 23 0 33 0;
#X connect 24 0 36 0;
#X connect 25 0 15 0;
#X connect 25 1 15 1;
#X connect 26 0 27 0;
#X connect 26 1 15 0;
#X connect 27 0 15 0;
#X connect 28 0 16 0;
#X connect 28 1 16 1;
#X connect 29 0 30 0;
#X connect 29 1 28 0;
#X connect 30 0 28 0;
#X connect 31 0 32 0;
#X connect 31 1 25 0;
#X connect 32 0 25 0;
#X connect 33 0 35 0;
#X connect 33 1 34 0;
#X connect 34 0 17 0;
#X connect 34 1 17 1;
#X connect 35 0 34 0;
#X connect 36 0 38 0;
#X connect 36 1 37 0;
#X connect 37 0 18 0;
#X connect 37 1 18 1;
#X connect 38 0 37 0;
#X connect 39 0 43 0;
#X connect 40 0 39 0;
#X connect 41 0 44 0;
#X connect 41 1 19 0;
#X connect 43 0 1 0;
#X connect 43 1 2 0;
#X connect 43 2 3 0;
#X connect 43 3 4 0;
#X connect 43 4 5 0;
#X connect 43 5 6 0;
#X connect 43 6 7 0;
#X connect 43 7 8 0;
#X connect 43 8 9 0;
#X connect 43 9 10 0;
#X connect 43 10 11 0;
#X connect 43 11 12 0;
#X connect 43 12 14 0;
#X connect 44 0 43 0;
