#N canvas 137 50 982 604 12;
#X obj 434 29 inlet~;
#X obj 268 57 tgl 15 0 empty empty empty 17 7 0 10 -262144 -1 -1 1
1;
#X obj 268 32 loadbang;
#X obj 516 29 inlet~;
#X obj 600 29 inlet~;
#X obj 681 30 inlet~;
#X obj 763 30 inlet~;
#X obj 329 55 r speed;
#X obj 453 210 s hue1;
#X obj 537 211 s hue2;
#X obj 621 211 s hue3;
#X obj 702 211 s hue4;
#X obj 783 211 s hue5;
#X obj 268 137 s speedB;
#X obj 268 78 metro 50;
#X obj 268 103 t b b b b b b b;
#X obj 525 160 snapshot~;
#X obj 606 163 snapshot~;
#X obj 690 161 snapshot~;
#X obj 771 160 snapshot~;
#X obj 432 161 snapshot~;
#X obj 102 63 r secondaryB;
#X obj 446 264 - 180;
#X obj 445 290 abs;
#X obj 449 320 / 180;
#X obj 451 346 * 100;
#X obj 524 261 - 180;
#X obj 523 287 abs;
#X obj 527 317 / 180;
#X obj 528 341 * 100;
#X obj 604 258 - 180;
#X obj 603 284 abs;
#X obj 607 314 / 180;
#X obj 609 340 * 100;
#X obj 682 255 - 180;
#X obj 681 281 abs;
#X obj 685 311 / 180;
#X obj 687 337 * 100;
#X obj 775 260 - 180;
#X obj 774 286 abs;
#X obj 778 316 / 180;
#X obj 778 344 * 100;
#X obj 450 431 s val1;
#X obj 530 419 s val2;
#X obj 451 371 + 20;
#X obj 451 396 min 100;
#X obj 532 366 + 20;
#X obj 532 391 min 100;
#X obj 611 437 s val3;
#X obj 691 441 s val4;
#X obj 781 443 s val5;
#X obj 606 373 + 20;
#X obj 606 398 min 100;
#X obj 687 368 + 20;
#X obj 687 393 min 100;
#X obj 776 385 + 20;
#X obj 776 410 min 100;
#X floatatom 341 334 5 0 0 0 - - -, f 5;
#X obj 334 283 r satBoost;
#X connect 0 0 20 0;
#X connect 1 0 14 0;
#X connect 2 0 1 0;
#X connect 3 0 16 0;
#X connect 4 0 17 0;
#X connect 5 0 18 0;
#X connect 6 0 19 0;
#X connect 7 0 14 1;
#X connect 14 0 15 0;
#X connect 15 0 13 0;
#X connect 15 2 19 0;
#X connect 15 3 18 0;
#X connect 15 4 17 0;
#X connect 15 5 16 0;
#X connect 15 6 20 0;
#X connect 16 0 9 0;
#X connect 16 0 26 0;
#X connect 17 0 10 0;
#X connect 17 0 30 0;
#X connect 18 0 11 0;
#X connect 18 0 34 0;
#X connect 19 0 12 0;
#X connect 19 0 38 0;
#X connect 20 0 8 0;
#X connect 20 0 22 0;
#X connect 21 0 15 0;
#X connect 22 0 23 0;
#X connect 23 0 24 0;
#X connect 24 0 25 0;
#X connect 25 0 44 0;
#X connect 26 0 27 0;
#X connect 27 0 28 0;
#X connect 28 0 29 0;
#X connect 29 0 46 0;
#X connect 30 0 31 0;
#X connect 31 0 32 0;
#X connect 32 0 33 0;
#X connect 33 0 51 0;
#X connect 34 0 35 0;
#X connect 35 0 36 0;
#X connect 36 0 37 0;
#X connect 37 0 53 0;
#X connect 38 0 39 0;
#X connect 39 0 40 0;
#X connect 40 0 41 0;
#X connect 41 0 55 0;
#X connect 44 0 45 0;
#X connect 45 0 42 0;
#X connect 46 0 47 0;
#X connect 47 0 43 0;
#X connect 51 0 52 0;
#X connect 52 0 48 0;
#X connect 53 0 54 0;
#X connect 54 0 49 0;
#X connect 55 0 56 0;
#X connect 56 0 50 0;
#X connect 57 0 44 1;
#X connect 57 0 46 1;
#X connect 57 0 51 1;
#X connect 57 0 53 1;
#X connect 57 0 55 1;
#X connect 58 0 57 0;
