#N canvas 57 85 1378 605 12;
#N canvas 675 94 711 547 controls 0;
#X obj 293 53 loadbang;
#X text 264 245 Maj;
#X text 264 267 Min;
#X text 254 327 Dom7;
#X text 254 307 Min7;
#X text 254 286 Maj7;
#X symbolatom 358 324 5 0 0 0 - - dsfgsgh, f 5;
#X text 357 304 ROOT;
#X obj 213 406 bng 30 250 50 0 empty empty MUTE -1 -7 0 15 -258113
-1 -1;
#X obj 124 116 noteDisplay;
#X obj 292 246 vradio 20 1 0 5 empty empty empty 0 -8 0 10 -204786
-1 -1 0;
#X obj 312 246 vradio 20 1 0 5 empty empty empty 0 -8 0 10 -204786
-1 -1 4;
#X obj 332 246 vradio 20 1 0 5 empty empty empty 0 -8 0 10 -204786
-1 -1 4;
#X obj 318 409 bng 30 250 50 0 empty empty + 6 14 0 30 -262144 -1 -1
;
#X obj 287 409 bng 30 250 50 0 empty empty - 6 14 0 30 -1 -262144 -262144
;
#X text 298 207 CHORD;
#X text 295 224 E*;
#X text 315 224 A*;
#X text 334 224 D*;
#X obj 348 412 tgl 25 0 empty empty > 6 12 0 27 -191407 -1 -1 0 1;
#X obj 261 413 tgl 25 0 empty empty < 6 12 0 27 -66577 -262144 -262144
0 1;
#X obj 565 157 sel 1;
#X msg 565 184 0;
#X obj 511 157 sel 1;
#X msg 511 185 0;
#X obj 513 214 metro 50;
#X obj 512 244 metro 50;
#X floatatom 292 380 5 50 10000 0 - - -, f 5;
#N canvas 0 50 1107 647 transpose 0;
#X msg 224 215 0;
#X msg 341 200 0;
#X obj 363 242 s note2;
#X msg 454 200 0;
#X obj 454 244 s note3;
#X msg 554 202 0;
#X msg 655 203 0;
#X obj 554 246 s note4;
#X obj 655 247 s note5;
#X obj 263 215 + 40;
#X obj 386 200 + 45;
#X obj 499 200 + 50;
#X obj 599 202 + 55;
#X obj 700 203 + 59;
#X obj 567 375 f;
#X obj 567 405 + 1;
#X obj 628 374 f;
#X obj 628 404 + 1;
#X obj 689 375 f;
#X obj 689 405 + 1;
#X obj 750 373 f;
#X obj 750 403 + 1;
#X obj 812 376 f;
#X obj 812 406 + 1;
#X obj 49 369 f;
#X obj 49 398 - 1;
#X obj 49 426 sel -1;
#X obj 113 371 f;
#X obj 113 400 - 1;
#X obj 113 428 sel -1;
#X obj 173 368 f;
#X obj 173 397 - 1;
#X obj 173 425 sel -1;
#X obj 240 369 f;
#X obj 240 398 - 1;
#X obj 240 426 sel -1;
#X obj 304 371 f;
#X obj 304 400 - 1;
#X obj 304 428 sel -1;
#X text 898 96 t+;
#X obj 454 354 loadbang;
#X obj 476 378 inlet;
#X obj 812 349 spigot;
#X obj 681 296 tgl 15 0 empty empty empty 17 7 0 10 -262144 -1 -1 1
1;
#X msg 613 294 0;
#X msg 647 294 1;
#X obj 750 348 spigot;
#X obj 588 295 tgl 15 0 empty empty empty 17 7 0 10 -262144 -1 -1 1
1;
#X msg 520 293 0;
#X msg 554 293 1;
#X obj 689 348 spigot;
#X obj 495 293 tgl 15 0 empty empty empty 17 7 0 10 -262144 -1 -1 1
1;
#X msg 427 291 0;
#X msg 461 291 1;
#X obj 628 348 spigot;
#X obj 404 292 tgl 15 0 empty empty empty 17 7 0 10 -262144 -1 -1 1
1;
#X msg 336 290 0;
#X msg 370 290 1;
#X obj 567 348 spigot;
#X obj 311 292 tgl 15 0 empty empty empty 17 7 0 10 -262144 -1 -1 1
1;
#X msg 243 290 0;
#X msg 277 290 1;
#X obj 49 339 spigot;
#X obj 113 339 spigot;
#X obj 173 339 spigot;
#X obj 240 339 spigot;
#X obj 304 339 spigot;
#X obj 935 98 inlet;
#X obj 735 162 s secondaryB;
#X obj 225 127 r ThNote;
#X obj 341 125 r INote;
#X obj 454 126 r MNote;
#X obj 554 129 r RiNote;
#X obj 292 526 s ThTrig;
#X obj 363 527 s ITrig;
#X obj 428 526 s MTrig;
#X obj 493 526 s RiTrig;
#X obj 568 526 s PTrig;
#X obj 872 124 t b b b b b;
#X text 88 90 t-;
#X obj 33 91 inlet;
#X obj 33 116 t b b b b b;
#X obj 258 250 s note1;
#X obj 654 129 r PNote;
#X msg 49 457 11;
#X msg 113 459 11;
#X msg 173 456 11;
#X msg 240 457 11;
#X msg 304 459 11;
#X obj 567 429 % 12;
#X obj 628 428 % 12;
#X obj 689 429 % 12;
#X obj 750 427 % 12;
#X obj 812 430 % 12;
#X msg 454 402 -1;
#X obj 348 161 sel -1;
#X obj 453 156 sel -1;
#X obj 554 165 sel -1;
#X obj 655 166 sel -1;
#X obj 224 168 sel -1;
#X connect 0 0 82 0;
#X connect 1 0 2 0;
#X connect 3 0 4 0;
#X connect 5 0 7 0;
#X connect 6 0 8 0;
#X connect 9 0 82 0;
#X connect 10 0 2 0;
#X connect 11 0 4 0;
#X connect 12 0 7 0;
#X connect 13 0 8 0;
#X connect 14 0 15 0;
#X connect 15 0 89 0;
#X connect 16 0 17 0;
#X connect 17 0 90 0;
#X connect 18 0 19 0;
#X connect 19 0 91 0;
#X connect 20 0 21 0;
#X connect 21 0 92 0;
#X connect 22 0 23 0;
#X connect 23 0 93 0;
#X connect 24 0 25 0;
#X connect 25 0 26 0;
#X connect 26 0 84 0;
#X connect 26 1 73 0;
#X connect 27 0 28 0;
#X connect 28 0 29 0;
#X connect 29 0 85 0;
#X connect 29 1 74 0;
#X connect 30 0 31 0;
#X connect 31 0 32 0;
#X connect 32 0 86 0;
#X connect 32 1 75 0;
#X connect 33 0 34 0;
#X connect 34 0 35 0;
#X connect 35 0 87 0;
#X connect 35 1 76 0;
#X connect 36 0 37 0;
#X connect 37 0 38 0;
#X connect 38 0 88 0;
#X connect 38 1 77 0;
#X connect 40 0 94 0;
#X connect 41 0 94 0;
#X connect 42 0 22 0;
#X connect 43 0 42 1;
#X connect 43 0 66 1;
#X connect 44 0 43 0;
#X connect 45 0 43 0;
#X connect 46 0 20 0;
#X connect 47 0 46 1;
#X connect 47 0 65 1;
#X connect 48 0 47 0;
#X connect 49 0 47 0;
#X connect 50 0 18 0;
#X connect 51 0 50 1;
#X connect 51 0 64 1;
#X connect 52 0 51 0;
#X connect 53 0 51 0;
#X connect 54 0 16 0;
#X connect 55 0 54 1;
#X connect 55 0 63 1;
#X connect 56 0 55 0;
#X connect 57 0 55 0;
#X connect 58 0 14 0;
#X connect 59 0 58 1;
#X connect 59 0 62 1;
#X connect 60 0 59 0;
#X connect 61 0 59 0;
#X connect 62 0 24 0;
#X connect 63 0 27 0;
#X connect 64 0 30 0;
#X connect 65 0 33 0;
#X connect 66 0 36 0;
#X connect 67 0 78 0;
#X connect 69 0 68 0;
#X connect 69 0 99 0;
#X connect 70 0 68 0;
#X connect 70 0 95 0;
#X connect 71 0 68 0;
#X connect 71 0 96 0;
#X connect 72 0 68 0;
#X connect 72 0 97 0;
#X connect 78 0 42 0;
#X connect 78 1 46 0;
#X connect 78 2 50 0;
#X connect 78 3 54 0;
#X connect 78 4 58 0;
#X connect 80 0 81 0;
#X connect 81 0 66 0;
#X connect 81 1 65 0;
#X connect 81 2 64 0;
#X connect 81 3 63 0;
#X connect 81 4 62 0;
#X connect 83 0 68 0;
#X connect 83 0 98 0;
#X connect 84 0 73 0;
#X connect 85 0 74 0;
#X connect 86 0 75 0;
#X connect 87 0 76 0;
#X connect 88 0 77 0;
#X connect 89 0 73 0;
#X connect 90 0 74 0;
#X connect 91 0 75 0;
#X connect 92 0 76 0;
#X connect 93 0 77 0;
#X connect 94 0 73 0;
#X connect 94 0 74 0;
#X connect 94 0 75 0;
#X connect 94 0 76 0;
#X connect 94 0 77 0;
#X connect 95 0 1 0;
#X connect 95 0 56 0;
#X connect 95 1 10 0;
#X connect 95 1 16 1;
#X connect 95 1 27 1;
#X connect 95 1 57 0;
#X connect 96 0 3 0;
#X connect 96 0 52 0;
#X connect 96 1 11 0;
#X connect 96 1 18 1;
#X connect 96 1 30 1;
#X connect 96 1 53 0;
#X connect 97 0 5 0;
#X connect 97 0 48 0;
#X connect 97 1 12 0;
#X connect 97 1 20 1;
#X connect 97 1 33 1;
#X connect 97 1 49 0;
#X connect 98 0 6 0;
#X connect 98 0 44 0;
#X connect 98 1 13 0;
#X connect 98 1 22 1;
#X connect 98 1 36 1;
#X connect 98 1 45 0;
#X connect 99 0 0 0;
#X connect 99 0 60 0;
#X connect 99 1 9 0;
#X connect 99 1 61 0;
#X connect 99 1 24 1;
#X connect 99 1 14 1;
#X restore 511 40 pd transpose;
#X msg 331 80 200;
#X text 253 381 SURF;
#N canvas 295 245 714 499 midi2HSV 0;
#X obj 89 230 osc~;
#X floatatom 89 173 5 0 0 0 - - -, f 5;
#X obj 89 145 mtof;
#X obj 88 119 sel 0;
#X msg 135 145 0;
#X obj 195 227 osc~;
#X floatatom 195 175 5 0 0 0 - - -, f 5;
#X obj 195 147 mtof;
#X obj 194 121 sel 0;
#X msg 241 147 0;
#X obj 292 236 osc~;
#X floatatom 296 175 5 0 0 0 - - -, f 5;
#X obj 296 147 mtof;
#X obj 295 121 sel 0;
#X msg 342 147 0;
#X obj 502 229 osc~;
#X floatatom 502 177 5 0 0 0 - - -, f 5;
#X obj 502 149 mtof;
#X obj 501 123 sel 0;
#X msg 548 149 0;
#X obj 397 226 osc~;
#X floatatom 397 174 5 0 0 0 - - -, f 5;
#X obj 397 146 mtof;
#X obj 396 120 sel 0;
#X msg 443 146 0;
#X obj 88 93 r note1;
#X obj 195 91 r note2;
#X obj 295 95 r note3;
#X obj 396 94 r note4;
#X obj 501 97 r note5;
#X obj 99 197 freq2Sat 1;
#X obj 303 14 r hueScale;
#X obj 296 399 Phase2Hue~;
#X obj 129 322 phasor~;
#X obj 136 299 / 4;
#X obj 130 346 *~ 360;
#X obj 239 324 phasor~;
#X obj 251 301 / 4;
#X obj 240 348 *~ 360;
#X obj 303 40 t f f f f f;
#X obj 345 315 phasor~;
#X obj 352 292 / 4;
#X obj 346 339 *~ 360;
#X obj 446 328 phasor~;
#X obj 463 303 / 4;
#X obj 447 352 *~ 360;
#X obj 575 354 phasor~;
#X obj 582 331 / 4;
#X obj 576 378 *~ 360;
#X obj 140 231 * 2;
#X obj 245 172 t f f;
#X msg 251 122 0;
#X msg 148 119 0;
#X obj 141 169 t f f;
#X obj 343 173 t f f;
#X msg 347 121 0;
#X msg 449 118 0;
#X msg 552 123 0;
#X obj 444 172 t f f;
#X obj 555 174 t f f;
#X obj 245 229 * 2;
#X obj 343 227 * 2;
#X obj 444 225 * 2;
#X obj 549 229 * 2;
#X obj 151 258 t b f;
#X obj 245 267 t b f;
#X obj 343 262 t b f;
#X obj 443 262 t b f;
#X obj 601 274 t b f;
#X obj 513 202 freq2Sat 5;
#X obj 405 198 freq2Sat 4;
#X obj 204 200 freq2Sat 2;
#X obj 304 200 freq2Sat 3;
#X obj 69 360 *~ 1;
#X obj 197 343 *~ 1;
#X obj 496 307 *~ 1;
#X obj 300 336 *~ 1;
#X obj 77 272 r val1;
#X obj 78 307 / 100;
#X obj 208 276 r val2;
#X obj 210 308 / 100;
#X obj 411 282 r val4;
#X obj 411 307 / 100;
#X obj 523 254 r val5;
#X obj 523 279 / 100;
#X obj 306 266 r val3;
#X obj 307 293 / 100;
#X obj 526 47 r valScale;
#X obj 74 453 throw~ Sig2;
#X obj 176 453 throw~ Sig2;
#X obj 274 453 throw~ Sig2;
#X obj 372 453 throw~ Sig2;
#X obj 470 453 throw~ Sig2;
#X obj 427 385 r bangRi;
#X connect 0 0 73 0;
#X connect 1 0 0 0;
#X connect 1 0 30 0;
#X connect 1 0 34 0;
#X connect 2 0 1 0;
#X connect 3 0 4 0;
#X connect 3 1 2 0;
#X connect 4 0 1 0;
#X connect 5 0 74 0;
#X connect 6 0 5 0;
#X connect 6 0 37 0;
#X connect 6 0 71 0;
#X connect 7 0 6 0;
#X connect 8 0 9 0;
#X connect 8 1 7 0;
#X connect 9 0 6 0;
#X connect 10 0 76 0;
#X connect 11 0 10 0;
#X connect 11 0 41 0;
#X connect 11 0 72 0;
#X connect 12 0 11 0;
#X connect 13 0 14 0;
#X connect 13 1 12 0;
#X connect 14 0 11 0;
#X connect 15 0 75 0;
#X connect 16 0 15 0;
#X connect 16 0 47 0;
#X connect 16 0 69 0;
#X connect 17 0 16 0;
#X connect 18 0 19 0;
#X connect 18 1 17 0;
#X connect 19 0 16 0;
#X connect 20 0 91 0;
#X connect 21 0 20 0;
#X connect 21 0 44 0;
#X connect 21 0 70 0;
#X connect 22 0 21 0;
#X connect 23 0 24 0;
#X connect 23 1 22 0;
#X connect 24 0 21 0;
#X connect 25 0 3 0;
#X connect 25 0 52 0;
#X connect 26 0 8 0;
#X connect 26 0 51 0;
#X connect 27 0 13 0;
#X connect 27 0 55 0;
#X connect 28 0 23 0;
#X connect 28 0 56 0;
#X connect 29 0 18 0;
#X connect 29 0 57 0;
#X connect 31 0 39 0;
#X connect 33 0 35 0;
#X connect 34 0 33 0;
#X connect 35 0 32 0;
#X connect 36 0 38 0;
#X connect 37 0 36 0;
#X connect 38 0 32 1;
#X connect 39 0 49 0;
#X connect 39 1 60 0;
#X connect 39 2 61 0;
#X connect 39 3 62 0;
#X connect 39 4 63 0;
#X connect 40 0 42 0;
#X connect 41 0 40 0;
#X connect 42 0 32 2;
#X connect 43 0 45 0;
#X connect 44 0 43 0;
#X connect 45 0 32 3;
#X connect 46 0 48 0;
#X connect 47 0 46 0;
#X connect 48 0 32 4;
#X connect 49 0 64 0;
#X connect 51 0 50 0;
#X connect 52 0 53 0;
#X connect 55 0 54 0;
#X connect 56 0 58 0;
#X connect 57 0 59 0;
#X connect 60 0 65 0;
#X connect 61 0 66 0;
#X connect 62 0 67 0;
#X connect 63 0 68 0;
#X connect 64 0 34 0;
#X connect 64 1 34 1;
#X connect 65 0 37 0;
#X connect 65 1 37 1;
#X connect 66 0 41 0;
#X connect 66 1 41 1;
#X connect 67 0 44 0;
#X connect 67 1 44 1;
#X connect 68 0 47 0;
#X connect 68 1 47 1;
#X connect 73 0 88 0;
#X connect 74 0 89 0;
#X connect 75 0 92 0;
#X connect 76 0 90 0;
#X connect 77 0 78 0;
#X connect 79 0 80 0;
#X connect 81 0 82 0;
#X connect 83 0 84 0;
#X connect 85 0 86 0;
#X restore 512 275 pd midi2HSV;
#X obj 363 377 tgl 26 0 modeToggle empty empty 17 7 0 10 -4032 -1 -1
0 1;
#X text 350 354 C-SYNC;
#N canvas 0 50 1351 656 noteHandler 0;
#X obj 83 181 pack f f f;
#X obj 83 122 poly 8 1;
#X obj 101 151 mtof;
#X obj 613 145 unpack;
#X obj 613 177 osc~;
#X obj 658 179 / 127;
#X obj 614 336 *~;
#X obj 658 317 line~;
#X obj 658 288 pack;
#X obj 658 206 sel 0;
#X obj 658 233 t f b;
#X obj 716 235 r R;
#X obj 695 264 f;
#X obj 735 264 pack;
#X obj 764 235 r A;
#X obj 238 144 unpack;
#X obj 238 176 osc~;
#X obj 283 178 / 127;
#X obj 239 335 *~;
#X obj 283 316 line~;
#X obj 283 287 pack;
#X obj 283 205 sel 0;
#X obj 283 232 t f b;
#X obj 341 234 r R;
#X obj 320 263 f;
#X obj 360 263 pack;
#X obj 429 143 unpack;
#X obj 429 175 osc~;
#X obj 474 177 / 127;
#X obj 430 334 *~;
#X obj 474 315 line~;
#X obj 474 286 pack;
#X obj 474 204 sel 0;
#X obj 474 231 t f b;
#X obj 532 233 r R;
#X obj 511 262 f;
#X obj 551 262 pack;
#X obj 808 144 unpack;
#X obj 808 176 osc~;
#X obj 853 178 / 127;
#X obj 809 335 *~;
#X obj 853 316 line~;
#X obj 853 287 pack;
#X obj 853 205 sel 0;
#X obj 853 232 t f b;
#X obj 911 234 r R;
#X obj 890 263 f;
#X obj 930 263 pack;
#X obj 959 234 r A;
#X obj 580 233 r A;
#X obj 389 234 r A;
#X text 902 159 Digests MIDI pitch and velocity, f 12;
#X text 993 228 Attack and release inputs, f 14;
#X text 898 316 Smooth changes;
#X text 899 364 Sends to the output;
#X obj 1103 144 unpack;
#X obj 1103 176 osc~;
#X obj 1148 178 / 127;
#X obj 1104 335 *~;
#X obj 1148 316 line~;
#X obj 1148 287 pack;
#X obj 1148 205 sel 0;
#X obj 1148 232 t f b;
#X obj 1206 234 r R;
#X obj 1185 263 f;
#X obj 1225 263 pack;
#X obj 1254 234 r A;
#X floatatom 70 310 5 0 0 0 - - -, f 5;
#X obj 70 333 / 127;
#X obj 70 361 * 500;
#X obj 70 387 + 5;
#X floatatom 70 412 5 0 0 0 - - -, f 5;
#X obj 70 436 s A;
#X floatatom 154 312 5 0 0 0 - - -, f 5;
#X obj 154 335 / 127;
#X obj 154 389 + 5;
#X floatatom 154 414 5 0 0 0 - - -, f 5;
#X obj 154 438 s R;
#X obj 154 363 * 2000;
#X obj 70 283 ctlin 5;
#X obj 154 285 ctlin 6;
#X text 72 260 Knob 5;
#X text 155 262 Knob 6;
#X text 28 459 Controls note attack and release;
#X obj 250 593 metro;
#X floatatom 282 457 5 0 0 0 - - -, f 5;
#X obj 282 480 / 127;
#X floatatom 282 559 5 0 0 0 - - -, f 5;
#X obj 282 508 * 1000;
#X obj 282 534 + 50;
#X obj 532 74 route 1 2 3 4 5;
#X obj 282 430 ctlin 7;
#X obj 250 563 tgl 15 0 empty empty empty 17 7 0 10 -262144 -1 -1 0
1;
#X obj 532 44 r noteHandler;
#X obj 83 89 inlet;
#X obj 136 89 inlet;
#X text 73 68 Pitch;
#X text 129 67 Velocity;
#X text 712 74 Sends pitch info to each of the 5 oscillators;
#X obj 83 206 s noteHandler;
#X msg 411 534 200;
#X obj 268 632 bng 15 250 50 0 empty empty empty 17 7 0 10 -262144
-1 -1;
#X obj 457 535 f;
#X obj 588 446 r e-vel;
#X obj 567 521 f;
#X obj 506 490 t b b;
#X obj 494 578 pack;
#X connect 0 0 99 0;
#X connect 1 0 0 0;
#X connect 1 1 2 0;
#X connect 1 2 0 2;
#X connect 2 0 0 1;
#X connect 3 0 4 0;
#X connect 3 1 5 0;
#X connect 4 0 6 0;
#X connect 5 0 9 0;
#X connect 7 0 6 1;
#X connect 8 0 7 0;
#X connect 9 0 10 0;
#X connect 9 1 13 0;
#X connect 10 0 8 0;
#X connect 10 1 12 0;
#X connect 11 0 12 1;
#X connect 12 0 8 1;
#X connect 13 0 7 0;
#X connect 14 0 13 1;
#X connect 15 0 16 0;
#X connect 15 1 17 0;
#X connect 16 0 18 0;
#X connect 17 0 21 0;
#X connect 19 0 18 1;
#X connect 20 0 19 0;
#X connect 21 0 22 0;
#X connect 21 1 25 0;
#X connect 22 0 20 0;
#X connect 22 1 24 0;
#X connect 23 0 24 1;
#X connect 24 0 20 1;
#X connect 25 0 19 0;
#X connect 26 0 27 0;
#X connect 26 1 28 0;
#X connect 27 0 29 0;
#X connect 28 0 32 0;
#X connect 30 0 29 1;
#X connect 31 0 30 0;
#X connect 32 0 33 0;
#X connect 32 1 36 0;
#X connect 33 0 31 0;
#X connect 33 1 35 0;
#X connect 34 0 35 1;
#X connect 35 0 31 1;
#X connect 36 0 30 0;
#X connect 37 0 38 0;
#X connect 37 1 39 0;
#X connect 38 0 40 0;
#X connect 39 0 43 0;
#X connect 41 0 40 1;
#X connect 42 0 41 0;
#X connect 43 0 44 0;
#X connect 43 1 47 0;
#X connect 44 0 42 0;
#X connect 44 1 46 0;
#X connect 45 0 46 1;
#X connect 46 0 42 1;
#X connect 47 0 41 0;
#X connect 48 0 47 1;
#X connect 49 0 36 1;
#X connect 50 0 25 1;
#X connect 55 0 56 0;
#X connect 55 1 57 0;
#X connect 56 0 58 0;
#X connect 57 0 61 0;
#X connect 59 0 58 1;
#X connect 60 0 59 0;
#X connect 61 0 62 0;
#X connect 61 1 65 0;
#X connect 62 0 60 0;
#X connect 62 1 64 0;
#X connect 63 0 64 1;
#X connect 64 0 60 1;
#X connect 65 0 59 0;
#X connect 66 0 65 1;
#X connect 67 0 68 0;
#X connect 68 0 69 0;
#X connect 69 0 70 0;
#X connect 70 0 71 0;
#X connect 71 0 72 0;
#X connect 73 0 74 0;
#X connect 74 0 78 0;
#X connect 75 0 76 0;
#X connect 76 0 77 0;
#X connect 78 0 75 0;
#X connect 79 0 67 0;
#X connect 80 0 73 0;
#X connect 84 0 101 0;
#X connect 85 0 86 0;
#X connect 86 0 88 0;
#X connect 87 0 84 1;
#X connect 88 0 89 0;
#X connect 89 0 87 0;
#X connect 90 0 15 0;
#X connect 90 1 26 0;
#X connect 90 2 3 0;
#X connect 90 3 37 0;
#X connect 90 4 55 0;
#X connect 91 0 85 0;
#X connect 92 0 84 0;
#X connect 93 0 90 0;
#X connect 94 0 1 0;
#X connect 95 0 1 1;
#X connect 100 0 84 1;
#X connect 102 0 106 0;
#X connect 103 0 104 1;
#X connect 104 0 106 1;
#X connect 105 0 102 0;
#X connect 105 1 104 0;
#X restore 512 335 pd noteHandler;
#X obj 381 74 t b b;
#N canvas 58 50 571 440 eChord 0;
#X obj 177 75 sel 0 1 2 3 4;
#X obj 47 202 f;
#X obj 139 202 f;
#X obj 355 198 f;
#X obj 205 203 f;
#X obj 47 234 + 1;
#X obj 82 234 + 2;
#X obj 139 233 + 2;
#X obj 267 232 + 2;
#X obj 236 232 + 1;
#X obj 299 232 + 4;
#X obj 354 233 + 2;
#X obj 205 232 - 1;
#X obj 67 43 r ThNote;
#X obj 146 362 s MTrig;
#X obj 211 362 s RiTrig;
#X obj 291 361 s PTrig;
#X obj 180 22 inlet;
#X obj 180 46 t b f;
#X obj 297 63 s chordExcept;
#X obj 75 361 s ITrig;
#X obj 417 199 f;
#X obj 407 239 + 2;
#X obj 440 241 + 1;
#X connect 0 0 1 0;
#X connect 0 1 2 0;
#X connect 0 2 4 0;
#X connect 0 3 3 0;
#X connect 0 4 21 0;
#X connect 1 0 5 0;
#X connect 1 0 6 0;
#X connect 1 0 16 0;
#X connect 2 0 7 0;
#X connect 2 0 15 0;
#X connect 2 0 16 0;
#X connect 3 0 11 0;
#X connect 3 0 14 0;
#X connect 3 0 15 0;
#X connect 3 0 16 0;
#X connect 4 0 9 0;
#X connect 4 0 8 0;
#X connect 4 0 10 0;
#X connect 4 0 12 0;
#X connect 5 0 15 0;
#X connect 6 0 14 0;
#X connect 6 0 20 0;
#X connect 7 0 14 0;
#X connect 7 0 20 0;
#X connect 8 0 20 0;
#X connect 9 0 14 0;
#X connect 9 0 15 0;
#X connect 10 0 16 0;
#X connect 11 0 20 0;
#X connect 13 0 1 1;
#X connect 13 0 2 1;
#X connect 13 0 4 1;
#X connect 13 0 3 1;
#X connect 13 0 21 1;
#X connect 17 0 18 0;
#X connect 18 0 19 0;
#X connect 18 1 0 0;
#X connect 21 0 22 0;
#X connect 21 0 23 0;
#X connect 21 0 14 0;
#X connect 21 0 16 0;
#X connect 22 0 20 0;
#X connect 23 0 15 0;
#X restore 511 71 pd eChord;
#N canvas 400 244 714 416 dChord 0;
#X obj 260 95 sel 0 1 2 3 4;
#X obj 139 189 f;
#X obj 344 193 f;
#X obj 235 195 f;
#X obj 496 192 f;
#X obj 267 223 + 2;
#X obj 344 222 + 2;
#X obj 529 223 + 2;
#X obj 407 191 f;
#X obj 407 224 + 2;
#X obj 443 224 + 1;
#X obj 139 220 + 3;
#X obj 173 220 + 2;
#X obj 235 223 + 1;
#X obj 298 224 + 3;
#X obj 496 223 + 1;
#X msg 88 220 -1;
#X obj 88 277 s ThTrig;
#X obj 165 278 s ITrig;
#X obj 307 316 s RiTrig;
#X obj 384 315 s PTrig;
#X obj 264 34 inlet;
#X obj 263 58 t b b f;
#X obj 390 89 s chordExcept;
#X obj 160 59 r MNote;
#X connect 0 0 1 0;
#X connect 0 1 3 0;
#X connect 0 2 2 0;
#X connect 0 3 8 0;
#X connect 0 4 4 0;
#X connect 1 0 11 0;
#X connect 1 0 12 0;
#X connect 2 0 6 0;
#X connect 3 0 5 0;
#X connect 3 0 13 0;
#X connect 3 0 14 0;
#X connect 4 0 7 0;
#X connect 4 0 15 0;
#X connect 5 0 19 0;
#X connect 6 0 19 0;
#X connect 6 0 20 0;
#X connect 7 0 19 0;
#X connect 8 0 9 0;
#X connect 8 0 10 0;
#X connect 9 0 19 0;
#X connect 10 0 20 0;
#X connect 11 0 20 0;
#X connect 12 0 19 0;
#X connect 14 0 20 0;
#X connect 15 0 20 0;
#X connect 16 0 17 0;
#X connect 16 0 18 0;
#X connect 21 0 22 0;
#X connect 22 0 23 0;
#X connect 22 1 16 0;
#X connect 22 2 0 0;
#X connect 24 0 1 1;
#X connect 24 0 3 1;
#X connect 24 0 2 1;
#X connect 24 0 4 1;
#X connect 24 0 8 1;
#X restore 511 128 pd dChord;
#N canvas 0 50 519 390 aChord 0;
#X obj 200 38 inlet;
#X obj 200 88 sel 0 1 2 3 4;
#X obj 88 169 f;
#X obj 240 168 f;
#X obj 151 167 f;
#X obj 428 170 f;
#X obj 88 197 + 2;
#X obj 185 198 + 2;
#X obj 151 197 + 1;
#X obj 241 201 + 2;
#X obj 428 202 + 2;
#X obj 275 201 + 1;
#X obj 335 166 f;
#X obj 335 203 + 2;
#X obj 371 203 + 1;
#X obj 296 311 s PTrig;
#X obj 222 310 s RiTrig;
#X obj 157 310 s MTrig;
#X msg 38 168 -1;
#X obj 38 249 s ThTrig;
#X obj 109 51 r INote;
#X obj 379 96 s chordExcept;
#X obj 199 62 t b b f;
#X connect 0 0 22 0;
#X connect 1 0 2 0;
#X connect 1 1 4 0;
#X connect 1 2 3 0;
#X connect 1 3 12 0;
#X connect 1 4 5 0;
#X connect 2 0 6 0;
#X connect 3 0 9 0;
#X connect 3 0 11 0;
#X connect 4 0 8 0;
#X connect 4 0 7 0;
#X connect 5 0 10 0;
#X connect 5 0 16 0;
#X connect 6 0 15 0;
#X connect 6 0 16 0;
#X connect 6 0 17 0;
#X connect 7 0 16 0;
#X connect 7 0 17 0;
#X connect 8 0 15 0;
#X connect 9 0 15 0;
#X connect 9 0 17 0;
#X connect 10 0 15 0;
#X connect 10 0 17 0;
#X connect 11 0 16 0;
#X connect 12 0 13 0;
#X connect 12 0 14 0;
#X connect 12 0 16 0;
#X connect 13 0 17 0;
#X connect 14 0 15 0;
#X connect 18 0 19 0;
#X connect 20 0 2 1;
#X connect 20 0 4 1;
#X connect 20 0 3 1;
#X connect 20 0 5 1;
#X connect 20 0 12 1;
#X connect 22 0 18 0;
#X connect 22 1 21 0;
#X connect 22 2 1 0;
#X restore 510 100 pd aChord;
#X obj 73 256 loadbang;
#X msg 111 365 \; PTrig 0 \; RiTrig 0 \; MTrig 10 \; ITrig 0 \; ThTrig
0 \;;
#N canvas 40 141 1202 604 ThIn 0;
#X floatatom 23 222 5 0 0 0 - - -, f 5;
#X obj 23 185 r Th-0-out;
#X floatatom 118 230 5 0 0 0 - - -, f 5;
#X floatatom 218 230 5 0 0 0 - - -, f 5;
#X floatatom 312 230 5 0 0 0 - - -, f 5;
#X floatatom 406 230 5 0 0 0 - - -, f 5;
#X floatatom 500 230 5 0 0 0 - - -, f 5;
#X floatatom 600 230 5 0 0 0 - - -, f 5;
#X floatatom 694 230 5 0 0 0 - - -, f 5;
#X floatatom 785 230 5 0 0 0 - - -, f 5;
#X floatatom 879 230 5 0 0 0 - - -, f 5;
#X floatatom 979 230 5 0 0 0 - - -, f 5;
#X floatatom 1073 230 5 0 0 0 - - -, f 5;
#X obj 117 185 r Th-1-out;
#X obj 217 185 r Th-2-out;
#X obj 311 185 r Th-3-out;
#X obj 405 185 r Th-4-out;
#X obj 499 185 r Th-5-out;
#X obj 599 185 r Th-6-out;
#X obj 693 185 r Th-7-out;
#X obj 784 185 r Th-8-out;
#X obj 878 185 r Th-9-out;
#X obj 972 185 r Th-10-out;
#X obj 1072 185 r Th-11-out;
#X obj 118 255 + 1;
#X obj 222 252 + 2;
#X obj 312 256 + 3;
#X obj 406 253 + 4;
#X obj 500 256 + 5;
#X obj 600 258 + 6;
#X obj 698 268 + 7;
#X obj 780 262 + 8;
#X obj 880 267 + 9;
#X obj 984 265 + 10;
#X obj 1077 265 + 11;
#X obj 423 88 r ThTrig;
#X obj 193 117 t b;
#X obj 226 134 t b;
#X obj 291 150 t b;
#X obj 377 158 t b;
#X obj 454 158 t b;
#X obj 534 156 t b;
#X obj 613 155 t b;
#X obj 709 155 t b;
#X obj 806 153 t b;
#X obj 898 150 t b;
#X obj 983 148 t b;
#X obj 1091 139 t b;
#X obj 279 350 f;
#X obj 220 387 ==;
#X obj 348 437 !=;
#X obj 220 412 tgl 15 0 empty empty empty 17 7 0 10 -262144 -1 -1 0
1;
#X obj 348 468 tgl 15 0 empty empty empty 17 7 0 10 -262144 -1 -1 1
1;
#X obj 220 435 sel 1;
#X obj 268 525 s ThNote;
#X obj 347 408 f;
#X obj 345 377 t f b;
#X msg 220 459 -1;
#X obj 268 495 spigot;
#X obj 423 123 sel 0 1 2 3 4 5 6 7 8 9 10 11 -1;
#X obj 446 399 r chordExcept;
#X msg 448 427 -1;
#X connect 0 0 48 0;
#X connect 1 0 0 0;
#X connect 2 0 24 0;
#X connect 3 0 25 0;
#X connect 4 0 26 0;
#X connect 5 0 27 0;
#X connect 6 0 28 0;
#X connect 7 0 29 0;
#X connect 8 0 30 0;
#X connect 9 0 31 0;
#X connect 10 0 32 0;
#X connect 11 0 33 0;
#X connect 12 0 34 0;
#X connect 13 0 2 0;
#X connect 14 0 3 0;
#X connect 15 0 4 0;
#X connect 16 0 5 0;
#X connect 17 0 6 0;
#X connect 18 0 7 0;
#X connect 19 0 8 0;
#X connect 20 0 9 0;
#X connect 21 0 10 0;
#X connect 22 0 11 0;
#X connect 23 0 12 0;
#X connect 24 0 48 0;
#X connect 25 0 48 0;
#X connect 26 0 48 0;
#X connect 27 0 48 0;
#X connect 28 0 48 0;
#X connect 29 0 48 0;
#X connect 30 0 48 0;
#X connect 31 0 48 0;
#X connect 32 0 48 0;
#X connect 33 0 48 0;
#X connect 34 0 48 0;
#X connect 35 0 59 0;
#X connect 36 0 0 0;
#X connect 37 0 2 0;
#X connect 38 0 3 0;
#X connect 39 0 4 0;
#X connect 40 0 5 0;
#X connect 41 0 6 0;
#X connect 42 0 7 0;
#X connect 43 0 8 0;
#X connect 44 0 9 0;
#X connect 45 0 10 0;
#X connect 46 0 11 0;
#X connect 47 0 12 0;
#X connect 48 0 56 0;
#X connect 48 0 49 0;
#X connect 48 0 50 0;
#X connect 48 0 58 0;
#X connect 49 0 51 0;
#X connect 50 0 52 0;
#X connect 51 0 53 0;
#X connect 52 0 58 1;
#X connect 53 0 57 0;
#X connect 55 0 49 1;
#X connect 55 0 50 1;
#X connect 56 0 55 1;
#X connect 56 1 55 0;
#X connect 57 0 55 1;
#X connect 57 0 54 0;
#X connect 58 0 54 0;
#X connect 59 0 36 0;
#X connect 59 1 37 0;
#X connect 59 2 38 0;
#X connect 59 3 39 0;
#X connect 59 4 40 0;
#X connect 59 5 41 0;
#X connect 59 6 42 0;
#X connect 59 7 43 0;
#X connect 59 8 44 0;
#X connect 59 9 45 0;
#X connect 59 10 46 0;
#X connect 59 11 47 0;
#X connect 59 12 57 0;
#X connect 60 0 61 0;
#X connect 61 0 55 0;
#X restore 502 461 pd ThIn;
#N canvas 40 141 1202 604 IIn 0;
#X floatatom 23 222 5 0 0 0 - - -, f 5;
#X floatatom 118 230 5 0 0 0 - - -, f 5;
#X floatatom 218 230 5 0 0 0 - - -, f 5;
#X floatatom 312 230 5 0 0 0 - - -, f 5;
#X floatatom 406 230 5 0 0 0 - - -, f 5;
#X floatatom 500 230 5 0 0 0 - - -, f 5;
#X floatatom 600 230 5 0 0 0 - - -, f 5;
#X floatatom 694 230 5 0 0 0 - - -, f 5;
#X floatatom 785 230 5 0 0 0 - - -, f 5;
#X floatatom 879 230 5 0 0 0 - - -, f 5;
#X floatatom 979 230 5 0 0 0 - - -, f 5;
#X floatatom 1073 230 5 0 0 0 - - -, f 5;
#X obj 118 255 + 1;
#X obj 222 252 + 2;
#X obj 312 256 + 3;
#X obj 406 253 + 4;
#X obj 500 256 + 5;
#X obj 600 258 + 6;
#X obj 698 268 + 7;
#X obj 780 262 + 8;
#X obj 880 267 + 9;
#X obj 984 265 + 10;
#X obj 1077 265 + 11;
#X obj 69 157 t b;
#X obj 167 159 t b;
#X obj 262 159 t b;
#X obj 364 157 t b;
#X obj 454 158 t b;
#X obj 546 161 t b;
#X obj 646 160 t b;
#X obj 745 161 t b;
#X obj 837 157 t b;
#X obj 927 156 t b;
#X obj 1032 156 t b;
#X obj 1130 151 t b;
#X obj 478 347 f;
#X obj 419 384 ==;
#X obj 547 434 !=;
#X obj 419 409 tgl 15 0 empty empty empty 17 7 0 10 -262144 -1 -1 0
1;
#X obj 547 465 tgl 15 0 empty empty empty 17 7 0 10 -262144 -1 -1 1
1;
#X obj 419 432 sel 1;
#X obj 546 405 f;
#X obj 544 374 t f b;
#X msg 419 456 -1;
#X obj 467 492 spigot;
#X obj 423 92 r ITrig;
#X obj 467 522 s INote;
#X obj 23 185 r I-0-out;
#X obj 117 186 r I-1-out;
#X obj 217 185 r I-2-out;
#X obj 311 185 r I-3-out;
#X obj 405 185 r I-4-out;
#X obj 499 185 r I-5-out;
#X obj 599 184 r I-6-out;
#X obj 693 185 r I-7-out;
#X obj 784 185 r I-8-out;
#X obj 878 185 r I-9-out;
#X obj 972 185 r I-10-out;
#X obj 1072 185 r I-11-out;
#X obj 423 123 sel 0 1 2 3 4 5 6 7 8 9 10 11 -1;
#X obj 645 368 r chordExcept;
#X msg 647 396 -1;
#X floatatom 333 392 5 0 0 0 - - -, f 5;
#X obj 365 525 bng 15 250 50 0 empty empty empty 17 7 0 10 -262144
-1 -1;
#X connect 0 0 35 0;
#X connect 1 0 12 0;
#X connect 2 0 13 0;
#X connect 3 0 14 0;
#X connect 4 0 15 0;
#X connect 5 0 16 0;
#X connect 6 0 17 0;
#X connect 7 0 18 0;
#X connect 8 0 19 0;
#X connect 9 0 20 0;
#X connect 10 0 21 0;
#X connect 11 0 22 0;
#X connect 12 0 35 0;
#X connect 13 0 35 0;
#X connect 14 0 35 0;
#X connect 15 0 35 0;
#X connect 16 0 35 0;
#X connect 17 0 35 0;
#X connect 18 0 35 0;
#X connect 19 0 35 0;
#X connect 20 0 35 0;
#X connect 21 0 35 0;
#X connect 22 0 35 0;
#X connect 23 0 0 0;
#X connect 24 0 1 0;
#X connect 25 0 2 0;
#X connect 26 0 3 0;
#X connect 27 0 4 0;
#X connect 28 0 5 0;
#X connect 29 0 6 0;
#X connect 30 0 7 0;
#X connect 31 0 8 0;
#X connect 32 0 9 0;
#X connect 33 0 10 0;
#X connect 34 0 11 0;
#X connect 35 0 42 0;
#X connect 35 0 36 0;
#X connect 35 0 37 0;
#X connect 35 0 44 0;
#X connect 35 0 62 0;
#X connect 36 0 38 0;
#X connect 37 0 39 0;
#X connect 38 0 40 0;
#X connect 39 0 44 1;
#X connect 40 0 43 0;
#X connect 41 0 36 1;
#X connect 41 0 37 1;
#X connect 42 0 41 1;
#X connect 42 1 41 0;
#X connect 43 0 41 1;
#X connect 43 0 46 0;
#X connect 43 0 63 0;
#X connect 44 0 46 0;
#X connect 45 0 59 0;
#X connect 47 0 0 0;
#X connect 48 0 1 0;
#X connect 49 0 2 0;
#X connect 50 0 3 0;
#X connect 51 0 4 0;
#X connect 52 0 5 0;
#X connect 53 0 6 0;
#X connect 54 0 7 0;
#X connect 55 0 8 0;
#X connect 56 0 9 0;
#X connect 57 0 10 0;
#X connect 58 0 11 0;
#X connect 59 0 23 0;
#X connect 59 1 24 0;
#X connect 59 2 25 0;
#X connect 59 3 26 0;
#X connect 59 4 27 0;
#X connect 59 5 28 0;
#X connect 59 6 29 0;
#X connect 59 7 30 0;
#X connect 59 8 31 0;
#X connect 59 9 32 0;
#X connect 59 10 33 0;
#X connect 59 11 34 0;
#X connect 59 12 43 0;
#X connect 60 0 61 0;
#X connect 61 0 41 0;
#X restore 503 435 pd IIn;
#N canvas 40 141 1202 604 MIn 0;
#X floatatom 23 222 5 0 0 0 - - -, f 5;
#X floatatom 118 230 5 0 0 0 - - -, f 5;
#X floatatom 218 230 5 0 0 0 - - -, f 5;
#X floatatom 312 230 5 0 0 0 - - -, f 5;
#X floatatom 406 230 5 0 0 0 - - -, f 5;
#X floatatom 500 230 5 0 0 0 - - -, f 5;
#X floatatom 600 230 5 0 0 0 - - -, f 5;
#X floatatom 694 230 5 0 0 0 - - -, f 5;
#X floatatom 785 230 5 0 0 0 - - -, f 5;
#X floatatom 879 230 5 0 0 0 - - -, f 5;
#X floatatom 979 230 5 0 0 0 - - -, f 5;
#X floatatom 1073 230 5 0 0 0 - - -, f 5;
#X obj 118 255 + 1;
#X obj 222 252 + 2;
#X obj 312 256 + 3;
#X obj 406 253 + 4;
#X obj 500 256 + 5;
#X obj 600 258 + 6;
#X obj 698 268 + 7;
#X obj 780 262 + 8;
#X obj 880 267 + 9;
#X obj 984 265 + 10;
#X obj 1077 265 + 11;
#X obj 69 157 t b;
#X obj 167 159 t b;
#X obj 262 159 t b;
#X obj 364 157 t b;
#X obj 454 158 t b;
#X obj 546 161 t b;
#X obj 646 160 t b;
#X obj 745 161 t b;
#X obj 837 157 t b;
#X obj 927 156 t b;
#X obj 1032 156 t b;
#X obj 1130 151 t b;
#X obj 478 347 f;
#X obj 419 384 ==;
#X obj 547 434 !=;
#X obj 419 409 tgl 15 0 empty empty empty 17 7 0 10 -262144 -1 -1 0
1;
#X obj 547 465 tgl 15 0 empty empty empty 17 7 0 10 -262144 -1 -1 1
1;
#X obj 419 432 sel 1;
#X obj 546 405 f;
#X obj 544 374 t f b;
#X msg 419 456 -1;
#X obj 467 492 spigot;
#X obj 423 92 r MTrig;
#X obj 467 522 s MNote;
#X obj 23 185 r M-0-out;
#X obj 117 186 r M-1-out;
#X obj 217 185 r M-2-out;
#X obj 311 185 r M-3-out;
#X obj 405 185 r M-4-out;
#X obj 499 185 r M-5-out;
#X obj 599 184 r M-6-out;
#X obj 693 185 r M-7-out;
#X obj 784 185 r M-8-out;
#X obj 878 185 r M-9-out;
#X obj 972 185 r M-10-out;
#X obj 1072 186 r M-11-out;
#X obj 423 123 sel 0 1 2 3 4 5 6 7 8 9 10 11 -1;
#X obj 609 376 r chordExcept;
#X msg 611 404 -1;
#X connect 0 0 35 0;
#X connect 1 0 12 0;
#X connect 2 0 13 0;
#X connect 3 0 14 0;
#X connect 4 0 15 0;
#X connect 5 0 16 0;
#X connect 6 0 17 0;
#X connect 7 0 18 0;
#X connect 8 0 19 0;
#X connect 9 0 20 0;
#X connect 10 0 21 0;
#X connect 11 0 22 0;
#X connect 12 0 35 0;
#X connect 13 0 35 0;
#X connect 14 0 35 0;
#X connect 15 0 35 0;
#X connect 16 0 35 0;
#X connect 17 0 35 0;
#X connect 18 0 35 0;
#X connect 19 0 35 0;
#X connect 20 0 35 0;
#X connect 21 0 35 0;
#X connect 22 0 35 0;
#X connect 23 0 0 0;
#X connect 24 0 1 0;
#X connect 25 0 2 0;
#X connect 26 0 3 0;
#X connect 27 0 4 0;
#X connect 28 0 5 0;
#X connect 29 0 6 0;
#X connect 30 0 7 0;
#X connect 31 0 8 0;
#X connect 32 0 9 0;
#X connect 33 0 10 0;
#X connect 34 0 11 0;
#X connect 35 0 42 0;
#X connect 35 0 36 0;
#X connect 35 0 37 0;
#X connect 35 0 44 0;
#X connect 36 0 38 0;
#X connect 37 0 39 0;
#X connect 38 0 40 0;
#X connect 39 0 44 1;
#X connect 40 0 43 0;
#X connect 41 0 36 1;
#X connect 41 0 37 1;
#X connect 42 0 41 1;
#X connect 42 1 41 0;
#X connect 43 0 41 1;
#X connect 43 0 46 0;
#X connect 44 0 46 0;
#X connect 45 0 59 0;
#X connect 47 0 0 0;
#X connect 48 0 1 0;
#X connect 49 0 2 0;
#X connect 50 0 3 0;
#X connect 51 0 4 0;
#X connect 52 0 5 0;
#X connect 53 0 6 0;
#X connect 54 0 7 0;
#X connect 55 0 8 0;
#X connect 56 0 9 0;
#X connect 57 0 10 0;
#X connect 58 0 11 0;
#X connect 59 0 23 0;
#X connect 59 1 24 0;
#X connect 59 2 25 0;
#X connect 59 3 26 0;
#X connect 59 4 27 0;
#X connect 59 5 28 0;
#X connect 59 6 29 0;
#X connect 59 7 30 0;
#X connect 59 8 31 0;
#X connect 59 9 32 0;
#X connect 59 10 33 0;
#X connect 59 11 34 0;
#X connect 59 12 43 0;
#X connect 60 0 61 0;
#X connect 61 0 41 0;
#X restore 499 409 pd MIn;
#N canvas 40 141 1202 604 RiIn 0;
#X floatatom 23 222 5 0 0 0 - - -, f 5;
#X floatatom 118 230 5 0 0 0 - - -, f 5;
#X floatatom 218 230 5 0 0 0 - - -, f 5;
#X floatatom 312 230 5 0 0 0 - - -, f 5;
#X floatatom 406 230 5 0 0 0 - - -, f 5;
#X floatatom 500 230 5 0 0 0 - - -, f 5;
#X floatatom 600 230 5 0 0 0 - - -, f 5;
#X floatatom 694 230 5 0 0 0 - - -, f 5;
#X floatatom 785 230 5 0 0 0 - - -, f 5;
#X floatatom 879 230 5 0 0 0 - - -, f 5;
#X floatatom 979 230 5 0 0 0 - - -, f 5;
#X floatatom 1073 230 5 0 0 0 - - -, f 5;
#X obj 118 255 + 1;
#X obj 222 252 + 2;
#X obj 312 256 + 3;
#X obj 406 253 + 4;
#X obj 500 256 + 5;
#X obj 600 258 + 6;
#X obj 698 268 + 7;
#X obj 780 262 + 8;
#X obj 880 267 + 9;
#X obj 984 265 + 10;
#X obj 1077 265 + 11;
#X obj 69 157 t b;
#X obj 167 159 t b;
#X obj 262 159 t b;
#X obj 364 157 t b;
#X obj 454 158 t b;
#X obj 546 161 t b;
#X obj 646 160 t b;
#X obj 745 161 t b;
#X obj 837 157 t b;
#X obj 927 156 t b;
#X obj 1032 156 t b;
#X obj 1130 151 t b;
#X obj 478 347 f;
#X obj 419 384 ==;
#X obj 547 434 !=;
#X obj 419 409 tgl 15 0 empty empty empty 17 7 0 10 -262144 -1 -1 0
1;
#X obj 547 465 tgl 15 0 empty empty empty 17 7 0 10 -262144 -1 -1 1
1;
#X obj 419 432 sel 1;
#X obj 546 405 f;
#X obj 544 374 t f b;
#X msg 419 456 -1;
#X obj 467 492 spigot;
#X obj 423 92 r RiTrig;
#X obj 467 522 s RiNote;
#X obj 23 185 r Ri-0-out;
#X obj 117 186 r Ri-1-out;
#X obj 217 185 r Ri-2-out;
#X obj 311 185 r Ri-3-out;
#X obj 405 185 r Ri-4-out;
#X obj 499 185 r Ri-5-out;
#X obj 599 184 r Ri-6-out;
#X obj 693 185 r Ri-7-out;
#X obj 784 185 r Ri-8-out;
#X obj 878 185 r Ri-9-out;
#X obj 972 185 r Ri-10-out;
#X obj 1072 186 r Ri-11-out;
#X obj 423 123 sel 0 1 2 3 4 5 6 7 8 9 10 11 -1;
#X obj 619 377 r chordExcept;
#X msg 621 405 -1;
#X connect 0 0 35 0;
#X connect 1 0 12 0;
#X connect 2 0 13 0;
#X connect 3 0 14 0;
#X connect 4 0 15 0;
#X connect 5 0 16 0;
#X connect 6 0 17 0;
#X connect 7 0 18 0;
#X connect 8 0 19 0;
#X connect 9 0 20 0;
#X connect 10 0 21 0;
#X connect 11 0 22 0;
#X connect 12 0 35 0;
#X connect 13 0 35 0;
#X connect 14 0 35 0;
#X connect 15 0 35 0;
#X connect 16 0 35 0;
#X connect 17 0 35 0;
#X connect 18 0 35 0;
#X connect 19 0 35 0;
#X connect 20 0 35 0;
#X connect 21 0 35 0;
#X connect 22 0 35 0;
#X connect 23 0 0 0;
#X connect 24 0 1 0;
#X connect 25 0 2 0;
#X connect 26 0 3 0;
#X connect 27 0 4 0;
#X connect 28 0 5 0;
#X connect 29 0 6 0;
#X connect 30 0 7 0;
#X connect 31 0 8 0;
#X connect 32 0 9 0;
#X connect 33 0 10 0;
#X connect 34 0 11 0;
#X connect 35 0 42 0;
#X connect 35 0 36 0;
#X connect 35 0 37 0;
#X connect 35 0 44 0;
#X connect 36 0 38 0;
#X connect 37 0 39 0;
#X connect 38 0 40 0;
#X connect 39 0 44 1;
#X connect 40 0 43 0;
#X connect 41 0 36 1;
#X connect 41 0 37 1;
#X connect 42 0 41 1;
#X connect 42 1 41 0;
#X connect 43 0 41 1;
#X connect 43 0 46 0;
#X connect 44 0 46 0;
#X connect 45 0 59 0;
#X connect 47 0 0 0;
#X connect 48 0 1 0;
#X connect 49 0 2 0;
#X connect 50 0 3 0;
#X connect 51 0 4 0;
#X connect 52 0 5 0;
#X connect 53 0 6 0;
#X connect 54 0 7 0;
#X connect 55 0 8 0;
#X connect 56 0 9 0;
#X connect 57 0 10 0;
#X connect 58 0 11 0;
#X connect 59 0 23 0;
#X connect 59 1 24 0;
#X connect 59 2 25 0;
#X connect 59 3 26 0;
#X connect 59 4 27 0;
#X connect 59 5 28 0;
#X connect 59 6 29 0;
#X connect 59 7 30 0;
#X connect 59 8 31 0;
#X connect 59 9 32 0;
#X connect 59 10 33 0;
#X connect 59 11 34 0;
#X connect 59 12 43 0;
#X connect 60 0 61 0;
#X connect 61 0 41 0;
#X restore 497 385 pd RiIn;
#N canvas 40 141 1202 604 PIn 0;
#X floatatom 23 222 5 0 0 0 - - -, f 5;
#X floatatom 118 230 5 0 0 0 - - -, f 5;
#X floatatom 218 230 5 0 0 0 - - -, f 5;
#X floatatom 312 230 5 0 0 0 - - -, f 5;
#X floatatom 406 230 5 0 0 0 - - -, f 5;
#X floatatom 500 230 5 0 0 0 - - -, f 5;
#X floatatom 600 230 5 0 0 0 - - -, f 5;
#X floatatom 694 230 5 0 0 0 - - -, f 5;
#X floatatom 785 230 5 0 0 0 - - -, f 5;
#X floatatom 879 230 5 0 0 0 - - -, f 5;
#X floatatom 979 230 5 0 0 0 - - -, f 5;
#X floatatom 1073 230 5 0 0 0 - - -, f 5;
#X obj 118 255 + 1;
#X obj 222 252 + 2;
#X obj 312 256 + 3;
#X obj 406 253 + 4;
#X obj 500 256 + 5;
#X obj 600 258 + 6;
#X obj 698 268 + 7;
#X obj 780 262 + 8;
#X obj 880 267 + 9;
#X obj 984 265 + 10;
#X obj 1077 265 + 11;
#X obj 69 157 t b;
#X obj 167 159 t b;
#X obj 262 159 t b;
#X obj 364 157 t b;
#X obj 454 158 t b;
#X obj 546 161 t b;
#X obj 646 160 t b;
#X obj 745 161 t b;
#X obj 837 157 t b;
#X obj 927 156 t b;
#X obj 1032 156 t b;
#X obj 1130 151 t b;
#X obj 478 347 f;
#X obj 419 384 ==;
#X obj 547 434 !=;
#X obj 419 409 tgl 15 0 empty empty empty 17 7 0 10 -262144 -1 -1 0
1;
#X obj 547 465 tgl 15 0 empty empty empty 17 7 0 10 -262144 -1 -1 1
1;
#X obj 419 432 sel 1;
#X obj 546 405 f;
#X obj 544 374 t f b;
#X msg 419 456 -1;
#X obj 467 492 spigot;
#X obj 423 92 r PTrig;
#X obj 23 185 r P-0-out;
#X obj 117 186 r P-1-out;
#X obj 217 185 r P-2-out;
#X obj 311 185 r P-3-out;
#X obj 405 185 r P-4-out;
#X obj 499 185 r P-5-out;
#X obj 599 184 r P-6-out;
#X obj 693 185 r P-7-out;
#X obj 784 184 r P-8-out;
#X obj 878 185 r P-9-out;
#X obj 972 185 r P-10-out;
#X obj 1072 186 r P-11-out;
#X obj 467 522 s PNote;
#X obj 423 123 sel 0 1 2 3 4 5 6 7 8 9 10 11 -1;
#X obj 603 375 r chordExcept;
#X msg 605 403 -1;
#X connect 0 0 35 0;
#X connect 1 0 12 0;
#X connect 2 0 13 0;
#X connect 3 0 14 0;
#X connect 4 0 15 0;
#X connect 5 0 16 0;
#X connect 6 0 17 0;
#X connect 7 0 18 0;
#X connect 8 0 19 0;
#X connect 9 0 20 0;
#X connect 10 0 21 0;
#X connect 11 0 22 0;
#X connect 12 0 35 0;
#X connect 13 0 35 0;
#X connect 14 0 35 0;
#X connect 15 0 35 0;
#X connect 16 0 35 0;
#X connect 17 0 35 0;
#X connect 18 0 35 0;
#X connect 19 0 35 0;
#X connect 20 0 35 0;
#X connect 21 0 35 0;
#X connect 22 0 35 0;
#X connect 23 0 0 0;
#X connect 24 0 1 0;
#X connect 25 0 2 0;
#X connect 26 0 3 0;
#X connect 27 0 4 0;
#X connect 28 0 5 0;
#X connect 29 0 6 0;
#X connect 30 0 7 0;
#X connect 31 0 8 0;
#X connect 32 0 9 0;
#X connect 33 0 10 0;
#X connect 34 0 11 0;
#X connect 35 0 42 0;
#X connect 35 0 36 0;
#X connect 35 0 37 0;
#X connect 35 0 44 0;
#X connect 36 0 38 0;
#X connect 37 0 39 0;
#X connect 38 0 40 0;
#X connect 39 0 44 1;
#X connect 40 0 43 0;
#X connect 41 0 36 1;
#X connect 41 0 37 1;
#X connect 42 0 41 1;
#X connect 42 1 41 0;
#X connect 43 0 41 1;
#X connect 43 0 58 0;
#X connect 44 0 58 0;
#X connect 45 0 59 0;
#X connect 46 0 0 0;
#X connect 47 0 1 0;
#X connect 48 0 2 0;
#X connect 49 0 3 0;
#X connect 50 0 4 0;
#X connect 51 0 5 0;
#X connect 52 0 6 0;
#X connect 53 0 7 0;
#X connect 54 0 8 0;
#X connect 55 0 9 0;
#X connect 56 0 10 0;
#X connect 57 0 11 0;
#X connect 59 0 23 0;
#X connect 59 1 24 0;
#X connect 59 2 25 0;
#X connect 59 3 26 0;
#X connect 59 4 27 0;
#X connect 59 5 28 0;
#X connect 59 6 29 0;
#X connect 59 7 30 0;
#X connect 59 8 31 0;
#X connect 59 9 32 0;
#X connect 59 10 33 0;
#X connect 59 11 34 0;
#X connect 59 12 43 0;
#X connect 60 0 61 0;
#X connect 61 0 41 0;
#X restore 499 362 pd PIn;
#X obj 73 293 t b b b b;
#X msg 11 349 \; PTrig -1 \; RiTrig -1 \; MTrig -1 \; ITrig -1 \; ThTrig
-1 \;;
#X floatatom 292 355 5 1 2000 0 - - -, f 5;
#X obj 105 203 s hueScale;
#X floatatom 269 131 5 10 2000 0 - - speed, f 5;
#X obj 34 164 s sat1;
#X floatatom 361 279 5 0 100 0 - - -, f 5;
#X obj 96 171 s sat2;
#X obj 160 178 s sat3;
#X obj 45 193 s sat4;
#X obj 41 221 s sat5;
#X text 362 256 SAT;
#X msg 283 162 75;
#X msg 292 83 33;
#X text 207 355 HUE SCALAR;
#X obj 92 74 s valScale;
#X obj 436 36 r ardPot;
#X floatatom 436 67 5 0 0 0 - - -, f 5;
#X floatatom 436 192 5 0 0 0 - - -, f 5;
#X obj 436 214 max 1;
#X obj 403 442 s arpTempo;
#X obj 436 239 max 2;
#X obj 436 264 / 2;
#X obj 431 160 * 400;
#X obj 632 402 r surfTe;
#X obj 632 427 max 35;
#X obj 439 91 t b f;
#X obj 437 135 -;
#X msg 438 113 1;
#X obj 250 471 clone colorClone 12;
#X msg 356 116 100;
#X connect 0 0 59 0;
#X connect 0 0 29 0;
#X connect 0 0 35 0;
#X connect 0 0 58 0;
#X connect 0 0 76 0;
#X connect 8 0 24 0;
#X connect 8 0 22 0;
#X connect 8 0 28 1;
#X connect 9 0 6 0;
#X connect 10 0 36 0;
#X connect 11 0 38 0;
#X connect 12 0 37 0;
#X connect 13 0 28 2;
#X connect 13 0 52 0;
#X connect 14 0 28 0;
#X connect 14 0 52 0;
#X connect 19 0 23 0;
#X connect 19 0 25 0;
#X connect 20 0 21 0;
#X connect 20 0 26 0;
#X connect 21 0 22 0;
#X connect 22 0 19 0;
#X connect 23 0 24 0;
#X connect 24 0 20 0;
#X connect 25 0 28 2;
#X connect 26 0 14 0;
#X connect 27 0 25 1;
#X connect 27 0 26 1;
#X connect 29 0 27 0;
#X connect 35 0 32 0;
#X connect 35 1 32 0;
#X connect 39 0 46 0;
#X connect 46 0 47 0;
#X connect 46 1 14 0;
#X connect 46 2 13 0;
#X connect 46 3 40 0;
#X connect 48 0 49 0;
#X connect 52 0 51 0;
#X connect 52 0 53 0;
#X connect 52 0 54 0;
#X connect 52 0 55 0;
#X connect 52 0 56 0;
#X connect 58 0 48 0;
#X connect 59 0 50 0;
#X connect 62 0 63 0;
#X connect 63 0 72 0;
#X connect 64 0 65 0;
#X connect 65 0 48 0;
#X connect 65 0 67 0;
#X connect 67 0 68 0;
#X connect 68 0 66 0;
#X connect 69 0 64 0;
#X connect 70 0 71 0;
#X connect 71 0 27 0;
#X connect 72 0 74 0;
#X connect 72 1 73 1;
#X connect 73 0 69 0;
#X connect 74 0 73 0;
#X connect 76 0 52 0;
#X coords 0 -1 1 1 220 250 2 200 200;
#X restore 1026 183 pd controls;
#N canvas 680 124 599 403 Ctrls 0;
#X obj 129 157 dac~;
#X obj 433 138 vu 20 200 empty empty -1 -8 0 10 -66577 -1 1 0;
#X obj 208 136 env~;
#X obj 208 167 * -1;
#X obj 129 94 *~;
#X obj 407 130 vsl 20 210 0 1 0 0 empty empty empty 0 -9 0 10 -203904
-1 -1 20900 1;
#X obj 208 196 + 100;
#X obj 208 225 * -1;
#X obj 219 95 line~ f 50;
#X text 428 110 Amp;
#X obj 129 121 /~ 5;
#X obj 129 68 catch~ Sig2;
#X connect 2 0 3 0;
#X connect 3 0 6 0;
#X connect 4 0 10 0;
#X connect 5 0 8 0;
#X connect 6 0 7 0;
#X connect 7 0 1 0;
#X connect 8 0 4 1;
#X connect 10 0 0 0;
#X connect 10 0 0 1;
#X connect 10 0 2 0;
#X connect 11 0 4 0;
#X coords 0 -1 1 1 85 250 2 400 100;
#X restore 1246 183 pd Ctrls;
#X obj 1049 115 cnv 2 100 60 empty empty SYNTEGER 20 12 1 40 -262144
-1 0;
#X obj 68 215 hradio 75 1 0 1 Ri-0-out Ri-0-in empty 0 -8 0 10 -1806
-1806 -262144 0;
#X obj 144 177 hradio 75 1 0 1 Ri-1-out Ri-1-in empty 0 -8 0 10 -1820
-1820 -262144 0;
#X obj 220 215 hradio 75 1 0 1 Ri-2-out Ri-2-in empty 0 -8 0 10 -925
-925 -262144 0;
#X obj 296 177 hradio 75 1 0 1 Ri-3-out Ri-3-in empty 0 -8 0 10 -29
-29 -262144 0;
#X obj 372 215 hradio 75 1 0 1 Ri-4-out Ri-4-in empty 0 -8 0 10 -53277
-53277 -262144 0;
#X obj 448 177 hradio 75 1 0 1 Ri-5-out Ri-5-in empty 0 -8 0 10 -110621
-110621 -262144 0;
#X obj 524 215 hradio 75 1 0 1 Ri-6-out Ri-6-in empty 0 -8 0 10 -1
-258081 -1 0;
#X obj 599 177 hradio 75 1 0 1 Ri-7-out Ri-7-in empty 0 -8 0 10 -94209
-94209 -262144 0;
#X obj 675 215 hradio 75 1 0 1 Ri-8-out Ri-8-in empty 0 -8 0 10 -95041
-95041 -262144 0;
#X obj 751 177 hradio 75 1 0 1 Ri-9-out Ri-9-in empty 0 -8 0 10 -95937
-95937 -262144 0;
#X obj 827 215 hradio 75 1 0 1 Ri-10-out Ri-10-in empty 0 -8 0 10 -59137
-59137 -262144 0;
#X obj 903 177 hradio 75 1 0 1 Ri-11-out Ri-11-in empty 0 -8 0 10 -1793
-1793 -262144 0;
#X obj 68 139 hradio 75 1 0 1 P-0-out P-0-in empty 0 -8 0 10 -407 -407
-262144 0;
#X obj 144 101 hradio 75 1 0 1 P-1-out P-1-in empty 0 -8 0 10 -20503
-20503 -262144 0;
#X obj 220 139 hradio 75 1 0 1 P-2-out P-2-in empty 0 -8 0 10 -65559
-65559 -262144 0;
#X obj 296 101 hradio 75 1 0 1 P-3-out P-3-in empty 0 -8 0 10 -114706
-114706 -262144 0;
#X obj 372 139 hradio 75 1 0 1 P-4-out P-4-in empty 0 -8 0 10 -114695
-114695 -262144 0;
#X obj 448 101 hradio 75 1 0 1 P-5-out P-5-in empty 0 -8 0 10 -1 -258945
-1 0;
#X obj 524 139 hradio 75 1 0 1 P-6-out P-6-in empty 0 -8 0 10 -115713
-115713 -262144 0;
#X obj 599 101 hradio 75 1 0 1 P-7-out P-7-in empty 0 -8 0 10 -71041
-71041 -262144 0;
#X obj 675 139 hradio 75 1 0 1 P-8-out P-8-in empty 0 -8 0 10 -25985
-25985 -262144 0;
#X obj 751 101 hradio 75 1 0 1 P-9-out P-9-in empty 0 -8 0 10 -1414
-1414 -262144 0;
#X obj 827 139 hradio 75 1 0 1 P-10-out P-10-in empty 0 -8 0 10 -1425
-1425 -262144 0;
#X obj 903 101 hradio 75 1 0 1 P-11-out P-11-in empty 0 -8 0 10 -1111
-1111 -262144 0;
#X obj 68 367 hradio 75 1 0 1 I-0-out I-0-in empty -30 39 0 20 -661
-661 -262144 0;
#X obj 144 329 hradio 75 1 0 1 I-1-out I-1-in empty 0 -8 0 10 -21 -21
-262144 0;
#X obj 220 367 hradio 75 1 0 1 I-2-out I-2-in empty 0 -8 0 10 -36885
-36885 -262144 0;
#X obj 296 329 hradio 75 1 0 1 I-3-out I-3-in empty 0 -8 0 10 -77845
-77845 -262144 0;
#X obj 372 367 hradio 75 1 0 1 I-4-out I-4-in empty 0 -8 0 10 -90123
-90123 -262144 0;
#X obj 448 329 hradio 75 1 0 1 I-5-out I-5-in empty 0 -8 0 10 -90113
-90113 -262144 0;
#X obj 524 367 hradio 75 1 0 1 I-6-out I-6-in empty 0 -8 0 10 -90689
-90689 -262144 0;
#X obj 599 329 hradio 75 1 0 1 I-7-out I-7-in empty 0 -8 0 10 -1 -237377
-1 0;
#X obj 675 367 hradio 75 1 0 1 I-8-out I-8-in empty 0 -8 0 10 -42241
-42241 -262144 0;
#X obj 751 329 hradio 75 1 0 1 I-9-out I-9-in empty 0 -8 0 10 -1281
-1281 -262144 0;
#X obj 827 367 hradio 75 1 0 1 I-10-out I-10-in empty 0 -8 0 10 -1290
-1290 -262144 0;
#X obj 903 329 hradio 75 1 0 1 I-11-out I-11-in empty 0 -8 0 10 -1300
-1300 -262144 0;
#X obj 68 291 hradio 75 1 0 1 M-0-out M-0-in empty 0 -8 0 10 -97217
-97217 -262144 0;
#X obj 144 253 hradio 75 1 0 1 M-1-out M-1-in empty 0 -8 0 10 -3009
-3009 -262144 0;
#X obj 220 291 hradio 75 1 0 1 M-2-out M-2-in empty 0 -8 0 10 -3033
-3033 -262144 0;
#X obj 296 253 hradio 75 1 0 1 M-3-out M-3-in empty 0 -8 0 10 -3056
-3056 -262144 0;
#X obj 372 291 hradio 75 1 0 1 M-4-out M-4-in empty 0 -8 0 10 -1520
-1520 -262144 0;
#X obj 448 253 hradio 75 1 0 1 M-5-out M-5-in empty 0 -8 0 10 -48 -48
-262144 0;
#X obj 524 291 hradio 75 1 0 1 M-6-out M-6-in empty 0 -8 0 10 -98352
-98352 -262144 0;
#X obj 599 253 hradio 75 1 0 1 M-7-out M-7-in empty 0 -8 0 10 -1 -258111
-1 0;
#X obj 675 291 hradio 75 1 0 1 M-8-out M-8-in empty 0 -8 0 10 -180248
-180248 -262144 0;
#X obj 751 253 hradio 75 1 0 1 M-9-out M-9-in empty 0 -8 0 10 -180225
-180225 -262144 0;
#X obj 827 291 hradio 75 1 0 1 M-10-out M-10-in empty 0 -8 0 10 -181761
-181761 -262144 0;
#X obj 903 253 hradio 75 1 0 1 M-11-out M-11-in empty 0 -8 0 10 -195521
-195521 -262144 0;
#X obj 68 443 hradio 75 1 0 1 Th-0-out Th-0-in empty -30 39 0 20 -127023
-127023 -262144 0;
#X obj 144 405 hradio 75 1 0 1 Th-1-out Th-1-in empty 0 -8 0 10 -196647
-196647 -262144 0;
#X obj 220 443 hradio 75 1 0 1 Th-2-out Th-2-in empty 0 -8 0 10 -196623
-196623 -262144 0;
#X obj 296 405 hradio 75 1 0 1 Th-3-out Th-3-in empty 0 -8 0 10 -197121
-197121 -262144 0;
#X obj 372 443 hradio 75 1 0 1 Th-4-out Th-4-in empty 0 -8 0 10 -198593
-198593 -262144 0;
#X obj 448 405 hradio 75 1 0 1 Th-5-out Th-5-in empty 0 -8 0 10 -1
-188353 -1 0;
#X obj 524 443 hradio 75 1 0 1 Th-6-out Th-6-in empty 0 -8 0 10 -60289
-60289 -262144 0;
#X obj 600 405 hradio 75 1 0 1 Th-7-out Th-7-in empty 0 -8 0 10 -2953
-2953 -262144 0;
#X obj 675 443 hradio 75 1 0 1 Th-8-out Th-8-in empty 0 -8 0 10 -2976
-2976 -262144 0;
#X obj 751 405 hradio 75 1 0 1 Th-9-out Th-9-in empty 0 -8 0 10 -2479
-2479 -262144 0;
#X obj 827 443 hradio 75 1 0 1 Th-10-out Th-10-in empty 0 -8 0 10 -943
-943 -262144 0;
#X obj 903 405 hradio 75 1 0 1 Th-11-out Th-11-in empty 0 -8 0 10 -32815
-32815 -262144 0;
#X text 46 473 E;
#X text 45 397 A;
#X text 47 322 D;
#X text 46 243 G;
#X text 46 169 B;
